<svg width="61" height="61" viewBox="0 0 61 61" fill="none" xmlns="http://www.w3.org/2000/svg">
<path d="M40.6668 33.55C37.3026 33.55 34.5668 36.2859 34.5668 39.65C34.5668 43.0142 37.3026 45.75 40.6668 45.75C44.0309 45.75 46.7668 43.0142 46.7668 39.65C46.7668 36.2859 44.0309 33.55 40.6668 33.55ZM40.6668 43.7167C38.4239 43.7167 36.6001 41.8927 36.6001 39.65C36.6001 37.4072 38.4241 35.5834 40.6668 35.5834C42.9096 35.5834 44.7334 37.4073 44.7334 39.65C44.7335 41.8929 42.9096 43.7167 40.6668 43.7167Z" fill="#FF1626"/>
<path d="M42.7 43.7167V47.9176L41.2299 46.9375C40.8883 46.7088 40.444 46.7088 40.1023 46.9375L38.6332 47.9176V43.7167H36.6V49.8167C36.6 50.1918 36.8063 50.5365 37.1378 50.7133C37.4672 50.8902 37.8698 50.8699 38.1808 50.6625L40.6666 49.0053L43.1523 50.6625C43.3221 50.7753 43.5194 50.8333 43.7166 50.8333C43.8813 50.8333 44.046 50.7936 44.1965 50.7133C44.5269 50.5364 44.7333 50.1917 44.7333 49.8167V43.7167H42.7Z" fill="#FF1626"/>
<path d="M36.6002 10.1666H23.3835V12.2H36.6002V10.1666Z" fill="#FF1626"/>
<path d="M46.7667 16.2666H14.2333V18.3H46.7667V16.2666Z" fill="#FF1626"/>
<path d="M36.5999 22.3666H14.2333V24.3999H36.5999V22.3666Z" fill="#FF1626"/>
<path d="M46.7665 22.3666H40.6665V24.3999H46.7665V22.3666Z" fill="#FF1626"/>
<path d="M46.7667 28.4667H14.2333V30.5H46.7667V28.4667Z" fill="#FF1626"/>
<path d="M26.4333 34.5667H14.2333V36.6H26.4333V34.5667Z" fill="#FF1626"/>
<path d="M19.3166 39.65H14.2333V41.6834H19.3166V39.65Z" fill="#FF1626"/>
<path d="M26.4335 39.65H23.3835V41.6834H26.4335V39.65Z" fill="#FF1626"/>
<path d="M55.9165 0C53.1136 0 50.8331 2.28035 50.8331 5.08337V7.11675C50.8331 7.6779 51.2875 8.13337 51.8498 8.13337H59.9831C60.5454 8.13337 60.9998 7.6779 60.9998 7.11675V5.08337C60.9999 2.28035 58.7195 0 55.9165 0ZM58.9665 6.1H52.8665V5.08337C52.8665 3.40182 54.235 2.03337 55.9165 2.03337C57.5981 2.03337 58.9665 3.40182 58.9665 5.08337V6.1Z" fill="#FF1626"/>
<path d="M55.9168 0H13.2168C10.4139 0 8.13354 2.28035 8.13354 5.08337V53.8834H10.1669V5.08337C10.1669 3.40182 11.5354 2.03337 13.2169 2.03337H51.8523C51.2129 2.88332 50.8337 3.93962 50.8337 5.08337V55.9167C50.8337 57.5983 49.4652 58.9667 47.7837 58.9667H9.15017V61H47.7836C50.5865 61 52.8669 58.7197 52.8669 55.9166V5.08337C52.8669 3.40182 54.2354 2.03337 55.9169 2.03337C56.4791 2.03337 56.9336 1.5779 56.9336 1.01675C56.9336 0.455594 56.479 0 55.9168 0Z" fill="#FF1626"/>
<path d="M47.7834 58.9666C46.1018 58.9666 44.7334 57.5981 44.7334 55.9166V53.8832C44.7334 53.321 44.279 52.8666 43.7167 52.8666H1.01663C0.455475 52.8666 0 53.321 0 53.8832V55.9166C0 58.7196 2.28035 60.9999 5.08337 60.9999H47.7834C48.3456 60.9999 48.8 60.5455 48.8 59.9833C48.8 59.4211 48.3456 58.9666 47.7834 58.9666ZM5.08337 58.9666C3.40182 58.9666 2.03337 57.5981 2.03337 55.9166V54.8999H42.7V55.9166C42.7 57.0603 43.0792 58.1166 43.7187 58.9666H5.08337Z" fill="#FF1626"/>
</svg>
