<svg width="79" height="85" viewBox="0 0 79 85" fill="none" xmlns="http://www.w3.org/2000/svg">
<path d="M63.956 31.2982H58.9824L60.4809 12.7859C60.4837 12.7524 60.4841 12.7193 60.4843 12.6863C60.4843 12.6835 60.4846 12.6808 60.4846 12.678C60.4846 12.6775 60.4846 12.6772 60.4846 12.6767C60.4846 12.1728 60.2021 11.7287 59.7869 11.5356C59.7833 11.534 59.7799 11.532 59.7764 11.5303C59.7506 11.5187 59.7239 11.5087 59.6971 11.4991C59.687 11.4956 59.6775 11.4913 59.6675 11.488C59.6455 11.4809 59.623 11.4752 59.6006 11.4694C59.5849 11.4654 59.5698 11.4606 59.5539 11.4573C59.5343 11.4531 59.5139 11.4505 59.4939 11.4473C59.475 11.4443 59.4565 11.4408 59.4375 11.439C59.4343 11.4387 59.4314 11.438 59.4281 11.4377C59.4078 11.4357 59.3877 11.436 59.3675 11.4352C59.3539 11.4347 59.3407 11.433 59.3271 11.433H59.3126C59.3113 11.433 59.3101 11.433 59.309 11.433H35.6443C35.0055 11.433 34.487 11.9909 34.487 12.6782C34.487 13.3638 35.0055 13.9233 35.6443 13.9233H58.0657L55.7626 42.3743C55.7623 42.3765 55.7623 42.3786 55.762 42.3808L55.181 49.5595H14.9696L15.6422 42.0891H23.2986C23.9379 42.0891 24.4558 41.5316 24.4558 40.844C24.4558 40.1564 23.9379 39.5989 23.2986 39.5989H15.8666L17.2867 23.8282H29.4724C30.1116 23.8282 30.6296 23.2707 30.6296 22.583C30.6296 21.8954 30.1116 21.3379 29.4724 21.3379H17.5111L18.1789 13.9233H31.0153C31.6526 13.9233 32.1726 13.3638 32.1726 12.6782C32.1726 11.9909 31.6526 11.433 31.0153 11.433H17.1286C17.1279 11.433 17.1275 11.4332 17.1269 11.4332C16.5833 11.433 16.1117 11.8448 15.9977 12.4155C15.9969 12.4197 15.9956 12.4237 15.9948 12.4278C15.9889 12.4589 15.9851 12.4906 15.9812 12.5224C15.9801 12.5326 15.9781 12.5422 15.9772 12.5523C15.977 12.5543 15.9766 12.5561 15.9764 12.5581L15.1858 21.3379H1.15723C0.517977 21.3379 0 21.8954 0 22.583C0 23.2707 0.517977 23.8282 1.15723 23.8282H14.9615L13.5413 39.5989H9.41245C8.7732 39.5989 8.25522 40.1564 8.25522 40.844C8.25522 41.5316 8.7732 42.0891 9.41245 42.0891H13.3171L12.5438 50.6756C12.5436 50.677 12.5436 50.6783 12.5435 50.6795L11.3478 63.9573C11.3477 63.9588 11.3475 63.9604 11.3473 63.9618L11.3469 63.9666C11.3453 63.9838 11.3455 64.0008 11.3446 64.018C11.3435 64.0409 11.3413 64.0634 11.3413 64.0866C11.3413 64.0876 11.3415 64.0886 11.3415 64.0898C11.3415 64.1218 11.3436 64.1533 11.3458 64.1849C11.3467 64.195 11.3464 64.2053 11.3475 64.2153C11.3506 64.2475 11.3557 64.2792 11.3611 64.3107C11.3626 64.32 11.3634 64.3295 11.3651 64.3386C11.3696 64.3625 11.3759 64.3856 11.3818 64.409C11.3858 64.4254 11.389 64.4422 11.3936 64.4583C11.395 64.4628 11.3969 64.4671 11.3981 64.4718C11.4541 64.657 11.5492 64.8234 11.6732 64.9592C11.6755 64.9617 11.6774 64.9645 11.6797 64.9668C11.692 64.9801 11.7055 64.9921 11.7184 65.0047C11.7982 65.0834 11.8883 65.1501 11.9869 65.2024C12.0074 65.2134 12.0276 65.2248 12.0486 65.2343C12.055 65.2373 12.0617 65.2392 12.0682 65.2419C12.0972 65.2544 12.1264 65.2663 12.1565 65.2764C12.1593 65.2773 12.1619 65.2778 12.1647 65.2788C12.1989 65.2897 12.2335 65.2993 12.2688 65.3071C12.2734 65.3081 12.2782 65.3085 12.2827 65.3095C12.3163 65.3163 12.3501 65.3221 12.3845 65.3257C12.3853 65.3257 12.3859 65.3259 12.3867 65.3261C12.4247 65.3301 12.4623 65.3321 12.4996 65.3321C12.5001 65.3321 12.5007 65.3319 12.5013 65.3319H17.653C18.2219 69.9725 21.9197 73.5668 26.3858 73.5668C30.8516 73.5668 34.5494 69.9725 35.1183 65.3319H53.6801C54.2491 69.9725 57.9467 73.5668 62.4127 73.5668C66.8785 73.5668 70.5766 69.9725 71.1456 65.3319H76.2986C76.2993 65.3319 76.3003 65.3321 76.301 65.3321C76.3396 65.3321 76.3776 65.3296 76.4152 65.3256C76.422 65.3249 76.4285 65.3234 76.4353 65.3226C76.4654 65.3188 76.4953 65.3143 76.5246 65.308C76.5373 65.3053 76.5495 65.3017 76.562 65.2985C76.5846 65.2929 76.6075 65.2869 76.6297 65.2798C76.6448 65.2749 76.6595 65.2693 76.6743 65.2638C76.6933 65.2568 76.7122 65.2495 76.7309 65.2414C76.7469 65.2346 76.7622 65.2271 76.7778 65.2197C76.7948 65.2112 76.8118 65.2026 76.8283 65.1934C76.844 65.1848 76.8591 65.1758 76.8743 65.1665C76.8901 65.1566 76.9059 65.1463 76.9215 65.1357C76.936 65.1257 76.9505 65.1156 76.9644 65.1049C76.9801 65.0932 76.9951 65.0807 77.0103 65.0681C77.023 65.0573 77.0358 65.0467 77.0481 65.0354C77.064 65.0209 77.079 65.0058 77.0941 64.9904C77.1046 64.9796 77.1156 64.969 77.1258 64.9577C77.1418 64.9401 77.1571 64.9215 77.1724 64.9027C77.1805 64.8926 77.189 64.8828 77.1969 64.8725C77.2139 64.8499 77.2293 64.8267 77.2447 64.8033C77.25 64.7952 77.2558 64.7875 77.2609 64.7792C77.2797 64.7488 77.2975 64.7176 77.3138 64.6854C77.3151 64.6834 77.3163 64.6816 77.3171 64.6794C77.3345 64.6449 77.3506 64.6095 77.3649 64.573C77.3689 64.5626 77.372 64.5518 77.3759 64.5413C77.3853 64.5156 77.3945 64.4899 77.4024 64.4631C77.4075 64.4459 77.4112 64.4281 77.4157 64.4107C77.4208 64.3899 77.4262 64.3693 77.4305 64.3482C77.4343 64.3295 77.4368 64.3102 77.4397 64.2911C77.4424 64.2744 77.4458 64.2579 77.4478 64.2408C77.4968 63.8178 78.403 55.9953 78.8078 50.9371C78.8082 50.9323 78.8084 50.9273 78.8088 50.9225C78.9253 49.4644 79 48.2365 79 47.4848C79 38.5596 72.2513 31.2982 63.956 31.2982ZM58.7807 33.7888H63.515L62.9103 41.2589H58.176L58.7807 33.7888ZM26.3861 71.0764C22.8038 71.0764 19.8894 67.9407 19.8894 64.0864C19.8894 60.2322 22.8039 57.0965 26.3861 57.0965C29.9683 57.0965 32.8826 60.2322 32.8826 64.0864C32.8826 67.9407 29.9683 71.0764 26.3861 71.0764ZM62.4127 71.0764C58.8305 71.0764 55.9163 67.9407 55.9163 64.0864C55.9163 60.2322 58.8307 57.0965 62.4127 57.0965C65.995 57.0965 68.9094 60.2322 68.9094 64.0864C68.9094 67.9407 65.995 71.0764 62.4127 71.0764ZM75.276 62.8408H71.146C70.5772 58.1998 66.8793 54.6054 62.413 54.6054C57.947 54.6054 54.2491 58.2 53.6804 62.8408H35.1187C34.55 58.1998 30.8522 54.6054 26.3861 54.6054C21.92 54.6054 18.2219 58.2 17.6532 62.8408H13.7735L14.7454 52.0491H56.2414V52.0498C56.2421 52.0498 56.2425 52.0498 56.2431 52.0498C56.2819 52.0498 56.3203 52.0474 56.3582 52.0433C56.3653 52.0426 56.3723 52.041 56.3794 52.04C56.4096 52.0361 56.4397 52.0315 56.4693 52.0252C56.4821 52.0224 56.4946 52.0185 56.5073 52.0152C56.5304 52.0092 56.5536 52.0034 56.5761 51.9961C56.5915 51.9911 56.6062 51.9852 56.6212 51.9795C56.6406 51.9722 56.66 51.9651 56.6789 51.9568C56.6951 51.9496 56.7107 51.9417 56.7264 51.9337C56.7435 51.9252 56.7606 51.9168 56.7772 51.9075C56.7929 51.8985 56.8083 51.8889 56.8239 51.8793C56.8398 51.8693 56.8555 51.8592 56.871 51.8485C56.8859 51.8381 56.9001 51.8271 56.9145 51.8162C56.9298 51.8045 56.9446 51.7926 56.9594 51.7801C56.9727 51.7687 56.9858 51.7569 56.9987 51.7448C57.0134 51.7312 57.0277 51.7172 57.0416 51.7028C57.0533 51.6907 57.0651 51.6782 57.0765 51.6654C57.0904 51.6498 57.1038 51.6337 57.1171 51.6173C57.1274 51.6043 57.1376 51.5914 57.1475 51.5781C57.1603 51.5607 57.1725 51.5427 57.1845 51.5246C57.1936 51.511 57.2024 51.4974 57.211 51.4835C57.2223 51.4647 57.2331 51.4455 57.2434 51.4259C57.2513 51.4113 57.2593 51.3966 57.2664 51.3817C57.2762 51.3621 57.2845 51.3422 57.2933 51.3221C57.3001 51.306 57.307 51.2902 57.3132 51.2736C57.3207 51.254 57.3271 51.2339 57.3337 51.2139C57.3394 51.1961 57.3454 51.1783 57.3505 51.1601C57.3556 51.1408 57.3598 51.1211 57.3644 51.1015C57.3689 51.0817 57.3738 51.0621 57.3774 51.042C57.3809 51.0224 57.3831 51.0025 57.3859 50.9826C57.3886 50.962 57.3919 50.9418 57.3937 50.9208C57.394 50.9179 57.3947 50.915 57.3948 50.912L57.9748 43.7484H63.9557C67.5013 43.7484 69.1004 45.725 70.7932 47.8178C72.1901 49.5446 73.7496 51.4712 76.4004 51.9412C76.0637 55.7712 75.5195 60.6879 75.276 62.8408ZM76.5982 49.446C74.8786 49.0688 73.8205 47.768 72.5388 46.1836C70.9358 44.2022 68.9788 41.7841 65.2274 41.3336L65.8261 33.9379C71.9616 34.9142 76.6855 40.6165 76.6855 47.4851C76.6855 47.9518 76.6531 48.6298 76.5982 49.446Z" fill="#FF1626"/>
<path d="M26.386 59.5208C24.0464 59.5208 22.1428 61.5687 22.1428 64.0862C22.1428 66.6037 24.0464 68.6516 26.386 68.6516C28.7256 68.6516 30.6292 66.6037 30.6292 64.0862C30.6292 61.5689 28.7256 59.5208 26.386 59.5208ZM26.386 66.1614C25.3224 66.1614 24.4573 65.2305 24.4573 64.0862C24.4573 62.9418 25.3224 62.011 26.386 62.011C27.4496 62.011 28.3147 62.9418 28.3147 64.0862C28.3147 65.2305 27.4494 66.1614 26.386 66.1614Z" fill="#FF1626"/>
<path d="M62.4129 59.5208C60.0732 59.5208 58.1697 61.5687 58.1697 64.0862C58.1697 66.6037 60.0732 68.6516 62.4129 68.6516C64.7525 68.6516 66.656 66.6037 66.656 64.0862C66.656 61.5689 64.7525 59.5208 62.4129 59.5208ZM62.4129 66.1614C61.3493 66.1614 60.4841 65.2305 60.4841 64.0862C60.4841 62.9418 61.3493 62.011 62.4129 62.011C63.4764 62.011 64.3416 62.9418 64.3416 64.0862C64.3416 65.2305 63.4764 66.1614 62.4129 66.1614Z" fill="#FF1626"/>
<path d="M10.9551 31.2985H5.29761C4.65836 31.2985 4.14038 31.856 4.14038 32.5436C4.14038 33.2313 4.65836 33.7888 5.29761 33.7888H10.9551C11.5943 33.7888 12.1123 33.2313 12.1123 32.5436C12.1123 31.856 11.5943 31.2985 10.9551 31.2985Z" fill="#FF1626"/>
</svg>
