<svg width="49" height="74" viewBox="0 0 49 74" fill="none" xmlns="http://www.w3.org/2000/svg">
<path d="M47.9348 59.1866C47.3467 59.1866 46.8699 59.6657 46.8699 60.2566V70.317C46.8699 70.6427 46.6061 70.9078 46.282 70.9078H40.5576V49.8356C40.5576 49.2446 40.0808 48.7655 39.4927 48.7655C38.9046 48.7655 38.4279 49.2446 38.4279 49.8356V70.908H26.9009L30.2436 67.2128C30.6088 66.809 30.781 66.2339 30.7042 65.6737C30.7028 65.6629 30.7011 65.6521 30.6992 65.6412L27.5155 46.7419L28.3733 45.4444C28.8475 45.7828 29.2128 46.1087 29.8979 46.1087C30.5947 46.1087 31.2463 45.7168 31.5669 45.0716V45.0714L34.9248 38.3088L42.5744 41.2856C42.8511 41.4049 46.8697 43.2234 46.8697 48.0252V55.263C46.8695 55.8538 47.3463 56.333 47.9346 56.333C48.5226 56.333 48.9994 55.8539 48.9994 55.263V48.0252C48.9994 41.6985 43.6084 39.3988 43.379 39.3039C43.3723 39.3011 43.3655 39.2984 43.3587 39.2958L30.6273 34.3414V31.341C32.6494 29.7607 34.0515 27.4182 34.4035 24.7456C35.4117 24.6743 36.3472 24.2959 37.1112 23.6358C38.109 22.7736 38.6814 21.5188 38.6814 20.1937C38.6814 19.094 38.2866 18.0439 37.5829 17.2257V13.2618C37.5828 5.94929 31.6623 0 24.3851 0C17.1078 0 11.1874 5.94929 11.1874 13.2618V17.3295C10.4762 18.1395 10.0894 19.1365 10.0894 20.1935C10.0894 21.5191 10.6616 22.7738 11.6596 23.6361C12.423 24.2959 13.358 24.6739 14.366 24.7454C14.7208 27.468 16.1638 29.8978 18.3581 31.4993V34.3414L5.64046 39.2956C5.63379 39.2982 5.62711 39.3009 5.62044 39.3036C5.39085 39.3985 0 41.6982 0 48.0249V70.3167C0 71.8226 1.21922 73.0478 2.71786 73.0478H12.8636C13.4517 73.0478 13.9285 72.5687 13.9285 71.9777C13.9285 71.3868 13.4517 70.9077 12.8636 70.9077H10.5724V49.8356C10.5724 49.2446 10.0956 48.7655 9.50754 48.7655C8.91944 48.7655 8.44266 49.2446 8.44266 49.8356V70.908H2.718C2.39385 70.908 2.13005 70.6429 2.13005 70.3172V48.025C2.13005 43.2071 6.1756 41.3928 6.42407 41.2861L14.0676 38.3085L17.4259 45.0714C17.7472 45.7182 18.3996 46.1087 19.095 46.1087C19.7767 46.1087 20.1385 45.7878 20.6196 45.4444L21.4774 46.7419L18.2939 65.6414C18.2921 65.6521 18.2905 65.6628 18.289 65.6736C18.212 66.2335 18.3842 66.8088 18.7496 67.2129L22.0923 70.9081H17.8335C17.2454 70.9081 16.7686 71.3872 16.7686 71.9781C16.7686 72.5691 17.2454 73.0482 17.8335 73.0482H46.2821C47.7808 73.0482 49 71.8229 49 70.3172V60.2568C48.9997 59.6657 48.5229 59.1866 47.9348 59.1866ZM32.9301 37.5326L29.7995 43.8373C29.7217 43.7818 28.0626 42.5974 26.0345 41.1502C26.9145 40.0587 25.885 41.3356 29.9014 36.354L32.9301 37.5326ZM26.6357 44.2046L25.8238 45.4325H23.1683L22.3564 44.2046L24.4961 42.6775L26.6357 44.2046ZM20.4877 34.6866V32.6841C21.7815 33.2081 23.1641 33.4511 24.5144 33.4511C25.9105 33.4511 27.2797 33.152 28.4974 32.617V34.6953L24.4961 39.6582L20.4877 34.6866ZM36.5515 20.1937C36.5514 20.8946 36.2493 21.5579 35.7225 22.0132C35.3742 22.3142 34.9535 22.5067 34.4928 22.582V17.8058C35.7167 18.0055 36.5515 19.0256 36.5515 20.1937ZM14.2779 22.582C13.0401 22.3801 12.2192 21.3518 12.2192 20.1935C12.2192 19.0496 13.1629 18.1185 14.2779 17.8596V22.582ZM14.3351 15.6791C13.9959 15.7182 13.6072 15.8105 13.3174 15.9095V13.2618C13.3174 7.12933 18.2823 2.14023 24.3852 2.14023C30.4881 2.14023 35.453 7.12933 35.453 13.2618V15.836C35.1435 15.7415 34.8225 15.679 34.4929 15.6496C34.4929 14.6171 34.5019 14.8162 31.1404 11.1848C30.5222 10.5174 29.4996 10.3776 28.7214 10.8885C25.0114 13.3237 20.4856 14.5471 16.3099 14.2458C15.3939 14.1769 14.5596 14.7831 14.3351 15.6791ZM16.4078 23.4245V16.7486V16.3969C21.0046 16.6674 25.8239 15.2952 29.7173 12.7897C31.2589 14.453 32.0938 15.3254 32.363 15.6573C32.363 16.4968 32.363 22.4635 32.363 23.4244C32.363 27.7683 28.8381 31.3107 24.5146 31.3107C19.6595 31.3109 16.4078 27.5263 16.4078 23.4245ZM19.1928 43.8373L16.0622 37.5326L19.0855 36.356L22.9533 41.1534C20.9864 42.5568 19.3713 43.7099 19.1928 43.8373ZM20.4146 65.8721L23.497 47.5725H25.4948L28.5771 65.8721L24.496 70.3838L20.4146 65.8721Z" fill="#FF1626"/>
</svg>
