<svg width="72" height="72" viewBox="0 0 72 72" fill="none" xmlns="http://www.w3.org/2000/svg">
<g clip-path="url(#clip0)">
<path d="M60.9117 22.5856L57.5312 18.4844C57.067 17.9214 56.7847 17.2402 56.7155 16.5146L56.2057 11.2241C55.9409 8.47535 53.7536 6.28798 51.0048 6.02321L45.7144 5.514C44.9887 5.44423 44.3076 5.16189 43.7445 4.69827L39.6433 1.31724C37.5126 -0.438917 34.4194 -0.438917 32.2886 1.31724L28.1874 4.69827C27.6249 5.16189 26.9438 5.44423 26.2176 5.514L20.9271 6.02321C18.1784 6.28798 15.9915 8.47535 15.7262 11.2241L15.217 16.5146C15.1472 17.2402 14.8649 17.9214 14.4013 18.4844L11.0202 22.5856C9.26409 24.7164 9.26409 27.8096 11.0202 29.9403L14.4013 34.0415C14.8649 34.6046 15.1472 35.2857 15.217 36.0114L15.7262 41.3018C15.991 44.0506 18.1784 46.2374 20.9271 46.5027L24.1609 46.8142L16.4777 65.1739C16.2695 65.6738 16.3634 66.2363 16.7232 66.6416C17.083 67.0465 17.6296 67.2069 18.1492 67.0591L24.8152 65.1772C24.8443 65.1689 24.8723 65.1816 24.8855 65.2052L28.2237 71.2751C28.4719 71.7272 28.9361 71.9997 29.447 71.9997C29.4712 71.9997 29.4953 71.9991 29.52 71.998C30.06 71.9705 30.5269 71.6442 30.7406 71.1411L38.8523 51.7558C39.1275 51.5976 39.3923 51.4158 39.6439 51.2087L43.7451 47.8282C44.2642 47.3997 44.8855 47.1289 45.5485 47.0344L52.8955 64.59L47.6963 63.1222C46.7075 62.8437 45.6721 63.2771 45.176 64.1763L42.5728 68.9098L39.1237 60.6673C38.8957 60.1229 38.2706 59.867 37.7262 60.0944C37.1824 60.3218 36.9259 60.9475 37.1539 61.4913L41.1941 71.1466C41.4055 71.6442 41.8719 71.9705 42.4124 71.998C42.4372 71.9991 42.4613 72.0002 42.4855 72.0002C42.9964 72.0002 43.4605 71.7272 43.7088 71.2751L47.0465 65.2063C47.0602 65.1816 47.0887 65.17 47.1168 65.1772L53.7816 67.0591C54.3023 67.2063 54.8495 67.0465 55.2087 66.6416C55.5685 66.2363 55.6624 65.6743 55.4537 65.1728L47.771 46.8136L51.0048 46.5022C53.7536 46.2374 55.9409 44.0506 56.2057 41.3018L56.7155 36.0108C56.7847 35.2852 57.067 34.6046 57.5312 34.0415L60.9117 29.9403C62.6684 27.8096 62.6684 24.7164 60.9117 22.5856ZM29.3596 68.9098L26.7559 64.1752C26.2604 63.2766 25.2239 62.8431 24.2356 63.1222L19.0369 64.5894L26.3835 47.0344C27.047 47.1289 27.6683 47.3997 28.1874 47.8276L32.2886 51.2087C33.3543 52.087 34.66 52.5259 35.9662 52.5259C36.0503 52.5259 36.1338 52.5237 36.2178 52.5199L29.3596 68.9098ZM59.2643 28.5824L55.8838 32.6836C55.1477 33.5757 54.7006 34.6557 54.5896 35.8065L54.0804 41.0969C53.9134 42.8305 52.5341 44.2099 50.8005 44.3769L46.1533 44.8245C46.1351 44.8256 46.1165 44.8273 46.0983 44.83L45.51 44.8866C44.3587 44.9976 43.2787 45.4447 42.3866 46.1803L38.2854 49.5607C36.9418 50.6687 34.9907 50.6687 33.647 49.5607L29.5459 46.1803C28.6538 45.4447 27.5738 44.997 26.4225 44.8866L25.8314 44.8295C25.8149 44.8273 25.799 44.8262 25.7825 44.8251L21.132 44.3769C19.3984 44.2099 18.0191 42.8305 17.8521 41.0969L17.3428 35.807C17.2319 34.6557 16.7847 33.5757 16.0487 32.6836L12.6682 28.5824C11.5602 27.2383 11.5602 25.2871 12.6682 23.9435L16.0487 19.8423C16.7847 18.9502 17.2319 17.8703 17.3428 16.7189L17.8521 11.4285C18.0191 9.69483 19.3984 8.3155 21.132 8.14851L26.4225 7.63929C27.5738 7.52833 28.6538 7.08119 29.5459 6.34566L33.647 2.96518C34.3188 2.41147 35.1428 2.13407 35.9662 2.13407C36.7897 2.13407 37.6136 2.41092 38.2854 2.96518L42.3866 6.34566C43.2787 7.08119 44.3587 7.52888 45.51 7.63929L50.8005 8.14851C52.5341 8.3155 53.9134 9.69483 54.0804 11.4285L54.5896 16.7189C54.7006 17.8703 55.1477 18.9502 55.8838 19.8423L59.2643 23.9435C60.3717 25.2877 60.3717 27.2383 59.2643 28.5824Z" fill="#FF1626"/>
<path d="M35.9667 9.58447C35.2537 9.58447 34.5363 9.62952 33.8331 9.7196C33.2487 9.79431 32.835 10.3293 32.9097 10.9138C32.9844 11.4988 33.52 11.9119 34.1039 11.8378C34.717 11.7592 35.3437 11.7197 35.9667 11.7197C43.9861 11.7197 50.5103 18.2439 50.5103 26.2633C50.5103 34.2827 43.9856 40.8064 35.9667 40.8064C27.9472 40.8064 21.423 34.2822 21.423 26.2627C21.423 20.5427 24.7958 15.3325 30.0154 12.9886C30.5532 12.7474 30.7938 12.1152 30.5521 11.5774C30.3104 11.0391 29.6781 10.799 29.1409 11.0407C23.155 13.7285 19.2878 19.7034 19.2878 26.2627C19.2878 35.4599 26.77 42.9416 35.9667 42.9416C45.1633 42.9416 52.6455 35.4599 52.6455 26.2627C52.6455 17.0661 45.1633 9.58447 35.9667 9.58447Z" fill="#FF1626"/>
<path d="M25.363 25.0263C24.0903 26.2991 24.0903 28.3705 25.363 29.6433L30.0262 34.307C30.6431 34.9233 31.4626 35.2628 32.3349 35.2628C33.2067 35.2628 34.0268 34.9233 34.6437 34.307L44.8231 24.1271C46.0959 22.8537 46.0959 20.7828 44.8231 19.5095C43.5503 18.2367 41.4789 18.2367 40.2056 19.5095L32.3349 27.3807L29.98 25.0263C28.7073 23.7535 26.6358 23.7535 25.363 25.0263ZM32.3349 29.9586C32.6178 29.9586 32.8892 29.846 33.0897 29.6455L41.7156 21.0196C42.1562 20.579 42.8725 20.5796 43.313 21.0196C43.7536 21.4601 43.7536 22.177 43.313 22.617L33.1337 32.7969C32.9205 33.0101 32.6365 33.1276 32.3349 33.1276C32.0328 33.1276 31.7494 33.0101 31.5362 32.7969L26.8725 28.1338C26.4325 27.6932 26.4325 26.9764 26.8725 26.5364C27.0928 26.3161 27.3823 26.2057 27.6718 26.2057C27.9607 26.2057 28.2502 26.3161 28.47 26.5358L31.5796 29.6455C31.7801 29.846 32.0515 29.9586 32.3349 29.9586Z" fill="#FF1626"/>
</g>
<defs>
<clipPath id="clip0">
<rect width="72" height="72" fill="white"/>
</clipPath>
</defs>
</svg>
