<svg width="78" height="76" viewBox="0 0 78 76" fill="none" xmlns="http://www.w3.org/2000/svg">
<path d="M57.9273 56.9003H2.28839V19.0996H11.2998C11.9317 19.0996 12.444 18.6004 12.444 17.9847C12.444 17.369 11.9317 16.8699 11.2998 16.8699H1.1442C0.512295 16.8699 0 17.369 0 17.9847V58.0151C0 58.6308 0.512295 59.13 1.1442 59.13H11.0961L15.3589 68.0861C15.6212 68.6372 16.312 68.8845 16.8783 68.6284L21.052 66.7425L33.705 75.5389C34.2127 75.8918 34.9393 75.7727 35.301 75.2789L47.1265 59.1298H57.9276C58.5595 59.1298 59.0718 58.6307 59.0718 58.015C59.0715 57.3994 58.5592 56.9003 57.9273 56.9003ZM13.6185 59.13H32.4601L16.9533 66.1368L13.6185 59.13ZM34.1025 73.0764L23.4398 65.6636L37.8997 59.13H44.315L34.1025 73.0764Z" fill="#FF1626"/>
<path d="M76.8557 16.8699H66.9038L62.6412 7.91358C62.3792 7.36328 61.6877 7.11549 61.1218 7.37131L56.9481 9.2572L44.2953 0.460827C43.7876 0.108234 43.0609 0.226855 42.6992 0.72096L30.8737 16.87H15.8765C15.2446 16.87 14.7323 17.3692 14.7323 17.9849C14.7323 18.6006 15.2446 19.0998 15.8765 19.0998H31.4611C31.4614 19.0998 31.4617 19.0999 31.462 19.0999C31.4624 19.0999 31.4629 19.0998 31.4632 19.0998H66.1697C66.1711 19.0998 66.1725 19.1001 66.174 19.1001C66.1758 19.1001 66.1777 19.0998 66.1795 19.0998H75.7114V56.9004H62.5039C61.8718 56.9004 61.3597 57.3996 61.3597 58.0153C61.3597 58.631 61.8718 59.1301 62.5039 59.1301H76.8556C77.4876 59.1301 77.9998 58.631 77.9998 58.0153V17.9848C77.9999 17.3691 77.4878 16.8699 76.8557 16.8699ZM64.3814 16.8699H45.5397L61.0466 9.86309L64.3814 16.8699ZM43.8976 2.92347L54.5602 10.3362L40.1004 16.87H33.6851L43.8976 2.92347Z" fill="#FF1626"/>
<path d="M38.9999 48.6539C45.0214 48.6539 49.9201 43.8807 49.9201 38.0137C49.9201 32.1467 45.0214 27.3735 38.9999 27.3735C32.9785 27.3735 28.0797 32.1466 28.0797 38.0137C28.0797 43.8807 32.9785 48.6539 38.9999 48.6539ZM38.9999 29.6032C43.7595 29.6032 47.6317 33.376 47.6317 38.0137C47.6317 42.6512 43.7595 46.4242 38.9999 46.4242C34.2404 46.4242 30.3681 42.6512 30.3681 38.0137C30.3681 33.3762 34.2404 29.6032 38.9999 29.6032Z" fill="#FF1626"/>
<path d="M29.3138 53.6663H64.1687C64.8008 53.6663 65.3129 53.1671 65.3129 52.5514C65.3129 49.7448 68.2177 46.9902 71.177 46.9902C71.8091 46.9902 72.3212 46.491 72.3212 45.8753V30.1234C72.3212 29.5077 71.8091 29.0086 71.177 29.0086C68.2177 29.0086 65.3129 26.254 65.3129 23.4474C65.3129 22.8317 64.8008 22.3325 64.1687 22.3325H13.209C12.5771 22.3325 12.0648 22.8317 12.0648 23.4474C12.0648 26.4258 9.61545 29.0383 6.82315 29.0383C6.19125 29.0383 5.67896 29.5375 5.67896 30.1532V45.8453C5.67896 46.461 6.19125 46.9602 6.82315 46.9602C9.61545 46.9602 12.0648 49.5728 12.0648 52.5511C12.0648 53.1668 12.5771 53.666 13.209 53.666H24.737C25.3689 53.666 25.8812 53.1668 25.8812 52.5511C25.8812 51.9354 25.3689 51.4363 24.737 51.4363H14.2681C14.0304 49.8719 13.3027 48.3572 12.1919 47.1585C11.0195 45.8932 9.54954 45.0874 7.96719 44.8246V31.1736C9.54939 30.9108 11.0193 30.105 12.1919 28.8397C13.3027 27.6412 14.0304 26.1263 14.2681 24.5619H63.1254C63.7025 27.7663 66.678 30.6039 70.0328 31.1452V44.8528C66.678 45.394 63.7025 48.2317 63.1254 51.4361H29.3138C28.6819 51.4361 28.1696 51.9353 28.1696 52.551C28.1696 53.1671 28.6819 53.6663 29.3138 53.6663Z" fill="#FF1626"/>
</svg>
