<svg width="67" height="67" viewBox="0 0 67 67" fill="none" xmlns="http://www.w3.org/2000/svg">
<g clip-path="url(#clip0)">
<path d="M66.9998 18.3149C66.9943 17.9883 66.8206 17.6769 66.5443 17.5019L45.7901 4.36001C45.6884 4.29563 45.5757 4.25048 45.4577 4.2268L24.4492 0.0209931C23.4082 -0.187858 22.8351 1.24479 23.7316 1.81245L33.1334 7.76574L25.5644 10.0121L19.1526 5.95204C18.8275 5.7462 18.412 5.74934 18.09 5.96002L10.3162 11.0486C9.28855 11.7212 10.3168 13.3942 11.3912 12.691L18.6365 7.94855L37.569 19.9368L21.7279 30.3057L2.79534 18.3174L7.05885 15.5267C8.08648 14.8541 7.05819 13.1811 5.98384 13.8843L0.444981 17.5099C0.172533 17.688 0.000976562 18.0058 0.000976562 18.331V52.8783C0.000976562 53.2146 0.173187 53.5275 0.457412 53.7074L21.2118 66.8493C21.4468 66.998 21.7498 67.0404 22.016 66.9611L57.9921 56.2844C59.1696 55.935 58.6646 54.037 57.4336 54.4027L22.7181 64.7052V32.2053L65.0377 19.646V52.1457L62.3578 52.9411C61.1805 53.2905 61.6851 55.1879 62.9163 54.8228L66.2985 53.8192C66.715 53.6956 67.0007 53.3127 67.0007 52.8783V18.331C67.0007 18.3257 66.9999 18.3203 66.9998 18.3149ZM44.8938 6.11588L61.0249 16.3303L45.382 13.1985L29.2509 2.98403L44.8938 6.11588ZM39.9069 19.0939L27.7659 11.4062L35.335 9.15991L44.4858 14.9543C44.5875 15.0187 44.7001 15.0639 44.8182 15.0876L61.9452 18.5165L27.8765 28.627L39.9193 20.7443C40.1986 20.5615 40.3658 20.2494 40.3633 19.9157C40.3609 19.582 40.1889 19.2724 39.9069 19.0939ZM1.96386 20.1141L20.7553 32.013V64.237L1.96386 52.3382V20.1141Z" fill="#FF1626"/>
<path d="M61.0656 38.4123C60.8173 38.227 60.4959 38.17 60.199 38.2584L26.9952 48.139C26.5791 48.2628 26.2937 48.6455 26.2937 49.0797V58.6566C26.2937 58.9664 26.44 59.2581 26.6884 59.4433C26.8599 59.5713 27.0662 59.638 27.2751 59.638C27.3688 59.638 27.4631 59.6245 27.5551 59.5972L60.7588 49.7165C61.1749 49.5928 61.4603 49.2101 61.4603 48.7759V39.199C61.4603 38.8892 61.314 38.5975 61.0656 38.4123ZM59.4974 48.044L28.2566 57.3405V49.8116L59.4974 40.5151V48.044Z" fill="#FF1626"/>
<path d="M38.1689 53.0417C38.711 53.0417 39.1504 52.6022 39.1504 52.0602V49.2791C39.1504 48.0509 37.1875 47.9949 37.1875 49.2791V52.0602C37.1875 52.6024 37.6269 53.0417 38.1689 53.0417Z" fill="#FF1626"/>
<path d="M51.1931 49.0497C51.7351 49.0497 52.1746 48.6103 52.1746 48.0683V45.287C52.1746 44.0589 50.2117 44.0029 50.2117 45.287V48.0683C50.2117 48.6103 50.6511 49.0497 51.1931 49.0497Z" fill="#FF1626"/>
<path d="M54.0898 48.2646C54.6319 48.2646 55.0713 47.8251 55.0713 47.2831V44.5018C55.0713 43.2737 53.1084 43.2177 53.1084 44.5018V47.2831C53.1084 47.8251 53.5478 48.2646 54.0898 48.2646Z" fill="#FF1626"/>
<path d="M56.9868 47.4794C57.5288 47.4794 57.9683 47.04 57.9683 46.498V43.7167C57.9683 42.4886 56.0054 42.4326 56.0054 43.7167V46.498C56.0054 47.04 56.4448 47.4794 56.9868 47.4794Z" fill="#FF1626"/>
<path d="M30.7957 55.2354C31.3377 55.2354 31.7771 54.796 31.7771 54.2539V51.4728C31.7771 50.2447 29.8142 50.1887 29.8142 51.4728V54.2539C29.8142 54.796 30.2536 55.2354 30.7957 55.2354Z" fill="#FF1626"/>
<path d="M33.6323 54.5374C34.1743 54.5374 34.6138 54.098 34.6138 53.5559V50.7748C34.6138 49.5467 32.6509 49.4907 32.6509 50.7748V53.5559C32.6509 54.098 33.0903 54.5374 33.6323 54.5374Z" fill="#FF1626"/>
<path d="M43.2937 51.4572C43.8357 51.4572 44.2751 51.0178 44.2751 50.4758V47.6946C44.2751 46.4665 42.3123 46.4105 42.3123 47.6946V50.4758C42.3123 51.0178 42.7517 51.4572 43.2937 51.4572Z" fill="#FF1626"/>
<path d="M46.0684 50.7467C46.6104 50.7467 47.0498 50.3072 47.0498 49.7652V46.9841C47.0498 45.756 45.0869 45.7 45.0869 46.9841V49.7652C45.0869 50.3072 45.5263 50.7467 46.0684 50.7467Z" fill="#FF1626"/>
</g>
<defs>
<clipPath id="clip0">
<rect width="67" height="67" fill="white"/>
</clipPath>
</defs>
</svg>
