<svg width="68" height="74" viewBox="0 0 68 74" fill="none" xmlns="http://www.w3.org/2000/svg">
<path d="M65.0119 31.5788H64.0163V28.3263V16.7638C64.0163 12.9783 61.1862 9.89846 57.7077 9.89846H30.3512L11.8952 4.16C11.8899 4.15841 11.8844 4.15754 11.8791 4.15595C11.8737 4.15436 11.8685 4.15205 11.8631 4.15061C11.8519 4.14757 11.8409 4.14613 11.8299 4.14352C11.8127 4.13962 11.7956 4.13557 11.7785 4.13254C11.7629 4.12979 11.7476 4.12806 11.7321 4.12604C11.714 4.12372 11.6961 4.1217 11.6782 4.12054C11.6636 4.11968 11.6491 4.11953 11.6345 4.11924C11.6159 4.11895 11.5974 4.11881 11.579 4.11968C11.5653 4.12025 11.5516 4.1217 11.5381 4.12286C11.5191 4.12459 11.5001 4.12647 11.4814 4.1295C11.4686 4.13153 11.456 4.13413 11.4434 4.13659C11.424 4.14034 11.4049 4.14439 11.3859 4.14945C11.374 4.15263 11.3625 4.15624 11.3508 4.15986C11.3314 4.16593 11.3123 4.17214 11.2932 4.17937C11.2824 4.18356 11.2718 4.18804 11.261 4.19266C11.2418 4.20076 11.2226 4.20929 11.2039 4.21868C11.1939 4.22374 11.1843 4.22923 11.1744 4.23458C11.1557 4.24484 11.1372 4.25525 11.1192 4.26695C11.1097 4.27288 11.1007 4.27924 11.0914 4.2856C11.0736 4.29774 11.0561 4.31017 11.0391 4.32361C11.0302 4.33055 11.0216 4.33806 11.0128 4.34543C10.9965 4.35916 10.9803 4.37318 10.9647 4.38807C10.9559 4.39645 10.9476 4.40527 10.9391 4.41394C10.9245 4.42897 10.91 4.444 10.8962 4.4599C10.8875 4.46987 10.8794 4.48028 10.8711 4.49069C10.8585 4.50644 10.846 4.52234 10.8342 4.53896C10.8257 4.55096 10.8177 4.56324 10.8096 4.57553C10.7991 4.59157 10.7887 4.60776 10.7792 4.62438C10.7709 4.63854 10.7634 4.65328 10.7558 4.66788C10.7474 4.68392 10.7391 4.70011 10.7315 4.71673C10.7241 4.73292 10.7174 4.74954 10.7106 4.76616C10.704 4.7825 10.6975 4.79883 10.6917 4.81559C10.6855 4.83323 10.6802 4.85129 10.6748 4.8695C10.6713 4.88121 10.6671 4.89219 10.6639 4.90405C10.6623 4.90997 10.6616 4.91575 10.6602 4.92153C10.6587 4.92746 10.6566 4.9331 10.6553 4.93902L9.51626 9.89817H6.30925C2.83767 9.89817 0.0124844 12.9655 0.0010625 16.7407C0.000929686 16.7485 0 16.7559 0 16.7635V54.3416C0 54.9399 0.447577 55.4256 0.996092 55.4256C1.54593 55.4256 1.99218 54.9399 1.99218 54.3416V21.7633C3.12162 22.919 4.64019 23.6292 6.30925 23.6292H57.7077C57.7089 23.6292 57.71 23.629 57.7112 23.629C60.0896 23.6311 62.0241 25.7375 62.0241 28.3264V35.9149H51.0655C51.0648 35.9149 51.0643 35.915 51.0637 35.915C51.0348 35.915 51.0061 35.9169 50.9776 35.9197C50.9458 35.9227 50.9145 35.9276 50.8837 35.9338C50.879 35.9347 50.8745 35.9351 50.8699 35.9361C50.8438 35.9418 50.8183 35.9493 50.793 35.9571C50.7874 35.9588 50.7817 35.96 50.7762 35.9619C50.7537 35.9694 50.7318 35.9783 50.7098 35.9874C50.7015 35.9909 50.693 35.9938 50.6846 35.9976C50.6663 36.0058 50.6486 36.0155 50.6309 36.0249C50.6193 36.031 50.6074 36.0366 50.596 36.0431C50.5822 36.051 50.5692 36.0601 50.5559 36.0688C50.5412 36.0784 50.5262 36.0876 50.5118 36.098C50.5021 36.1049 50.4932 36.1129 50.4839 36.1203C50.4669 36.1336 50.4498 36.1467 50.4336 36.1613C50.4266 36.1677 50.42 36.1748 50.4133 36.1813C50.3959 36.1977 50.3785 36.2141 50.362 36.232C50.3523 36.2425 50.3435 36.2541 50.3344 36.2651C50.3215 36.2803 50.3082 36.2952 50.296 36.3113C50.2754 36.3387 50.2562 36.367 50.2381 36.3963C50.2377 36.3968 50.2373 36.3973 50.237 36.3979L44.9248 45.0699C44.8877 45.1303 44.8564 45.1944 44.8316 45.261C44.8221 45.2858 44.8146 45.3111 44.807 45.3363C44.8047 45.3439 44.8018 45.3513 44.7997 45.359C44.7923 45.3857 44.7865 45.4127 44.7811 45.4396C44.7796 45.4467 44.7778 45.4536 44.7765 45.4607C44.7721 45.485 44.7691 45.5094 44.7664 45.5339C44.7652 45.5443 44.7633 45.5547 44.7624 45.5652C44.7605 45.5853 44.7601 45.6053 44.7595 45.6253C44.7588 45.6407 44.7576 45.656 44.7576 45.6715C44.7576 45.6863 44.7588 45.7012 44.7593 45.7161C44.76 45.7366 44.7605 45.7573 44.7624 45.7778C44.7633 45.7878 44.765 45.7978 44.7662 45.8077C44.7691 45.8326 44.7721 45.8575 44.7766 45.8822C44.7778 45.889 44.7796 45.8956 44.7811 45.9024C44.7865 45.9296 44.7924 45.9568 44.7998 45.9838C44.802 45.9914 44.8049 45.9988 44.8071 46.0066C44.8147 46.0318 44.8223 46.0571 44.8317 46.0819C44.8567 46.1484 44.888 46.2126 44.9252 46.2731L50.2373 54.9438C50.2376 54.9443 50.2378 54.9446 50.2381 54.945C50.2595 54.9795 50.2828 55.0125 50.3076 55.0441C50.3157 55.0545 50.3243 55.0642 50.3327 55.0741C50.3495 55.0941 50.3671 55.1135 50.3853 55.1322C50.396 55.1431 50.4066 55.1538 50.4175 55.1641C50.4369 55.1822 50.457 55.1991 50.4776 55.2156C50.4868 55.2229 50.4957 55.231 50.5052 55.238C50.5351 55.2601 50.566 55.2804 50.598 55.2989C50.6061 55.3036 50.6145 55.3075 50.6226 55.3118C50.6481 55.3257 50.6741 55.3386 50.7008 55.35C50.7112 55.3545 50.7215 55.3585 50.732 55.3625C50.7574 55.3724 50.7832 55.381 50.8095 55.3887C50.8202 55.3917 50.8308 55.3949 50.8417 55.3978C50.8687 55.4046 50.896 55.4098 50.9238 55.4141C50.9339 55.4157 50.9439 55.4179 50.9539 55.4192C50.9882 55.4234 51.023 55.4257 51.0583 55.426C51.0611 55.426 51.0639 55.4266 51.0668 55.4266C51.0674 55.4266 51.068 55.4264 51.0687 55.4264H62.0245V63.0155C62.0245 65.6057 60.0881 67.713 57.7081 67.713H6.30978C3.92978 67.713 1.99338 65.6057 1.99338 63.0155C1.99338 63.0098 1.99272 63.0043 1.99258 62.9987V58.6781C1.99258 58.0812 1.54633 57.5941 0.99649 57.5941C0.447976 57.5941 0.000398437 58.0812 0.000398437 58.6781V63.0155C0.000398437 63.0267 0.00159375 63.0377 0.00199218 63.0488C0.0185937 66.8191 2.84152 69.881 6.30978 69.881H57.7081C61.1863 69.881 64.0162 66.8017 64.0167 63.0166C64.0167 63.0165 64.0167 63.0163 64.0167 63.016V55.4264H65.0123C66.6597 55.4264 68 53.9678 68 52.1751V34.8302C67.9996 33.0374 66.6593 31.5788 65.0119 31.5788ZM12.3383 6.55242L29.9145 12.0176C29.9153 12.0179 29.9162 12.018 29.917 12.0183L41.6969 15.681H10.2417L12.3383 6.55242ZM62.024 23.3264C60.8947 22.171 59.3764 21.4609 57.7077 21.4609C57.706 21.4609 57.7044 21.4612 57.7025 21.4612H6.30925C3.92912 21.4612 1.99271 19.354 1.99271 16.7638C1.99271 14.1737 3.92912 12.0664 6.30925 12.0664H9.01835L8.18827 15.681H6.30951C5.7594 15.681 5.31342 16.1663 5.31342 16.765C5.31342 17.3636 5.7594 17.849 6.30951 17.849H8.96257C8.9639 17.849 8.96536 17.8492 8.96682 17.8492C8.96788 17.8492 8.96894 17.849 8.96987 17.849H48.8057C48.807 17.849 48.8082 17.8492 48.8094 17.8492C48.8105 17.8492 48.8116 17.849 48.8126 17.849H56.3784C56.9285 17.849 57.3745 17.3636 57.3745 16.765C57.3745 16.1663 56.9285 15.681 56.3784 15.681H48.9485L37.3236 12.0664H57.7076C60.0876 12.0664 62.024 14.1737 62.024 16.7638V23.3264ZM66.0074 52.1745C66.0074 52.7718 65.5608 53.2579 65.0119 53.2579H51.5986L46.9503 45.6709L51.5986 38.0827H65.0119C65.0258 38.0827 65.0394 38.081 65.0532 38.0804C65.3873 38.0753 65.7082 38.0106 66.0074 37.8953V52.1745ZM65.0119 35.9136C65.005 35.9136 64.9982 35.9146 64.9913 35.9147H64.0163V33.7468H65.0119C65.5608 33.7468 66.0074 34.2328 66.0074 34.8302C66.0074 35.4275 65.5608 35.9136 65.0119 35.9136Z" fill="#FF1626"/>
<path d="M55.0505 41.6961C53.0366 41.6961 51.3982 43.4792 51.3982 45.6709C51.3982 47.8625 53.0366 49.6455 55.0505 49.6455C57.0645 49.6455 58.7029 47.8625 58.7029 45.6709C58.7029 43.4792 57.0645 41.6961 55.0505 41.6961ZM55.0505 47.4775C54.1351 47.4775 53.3904 46.6671 53.3904 45.6709C53.3904 44.6746 54.1351 43.8641 55.0505 43.8641C55.966 43.8641 56.7107 44.6746 56.7107 45.6709C56.7107 46.6671 55.966 47.4775 55.0505 47.4775Z" fill="#FF1626"/>
</svg>
