<svg width="76" height="56" viewBox="0 0 76 56" fill="none" xmlns="http://www.w3.org/2000/svg">
<g clip-path="url(#clip0)">
<path d="M18.3036 13.639C17.8909 13.5555 17.6226 13.1589 17.7051 12.7413C17.7877 12.3238 18.1797 12.0524 18.5925 12.1359L35.2452 15.6641C35.6579 15.7685 35.9261 16.1652 35.8436 16.5827C35.7404 16.9794 35.3484 17.2508 34.9357 17.1673L18.3036 13.639ZM23.2354 18.3782C22.8227 18.2946 22.5544 17.898 22.637 17.4804C22.7402 17.0838 23.1322 16.8124 23.5449 16.8959L30.6435 18.3782C31.0356 18.4825 31.3038 18.8792 31.2213 19.2968C31.1388 19.6934 30.7467 19.9648 30.334 19.8813L23.2354 18.3782ZM39.3103 12.282L48.8645 4.74535C50.1852 1.61377 50.2058 -2.8957 53.4043 2.34448L53.5075 2.53237L63.5156 5.87272C64.2791 6.12325 64.8156 6.49904 64.8156 7.31325V11.2799C64.8156 11.7601 64.4442 12.1359 63.9902 12.1359H52.7852C52.5789 12.1359 52.4757 12.2403 52.4757 12.4699C52.4757 12.7831 52.4757 12.5534 52.4757 13.1589C52.4757 13.305 52.517 13.3885 52.6202 13.4511C52.8471 13.5764 53.0948 13.7017 53.4662 13.9731C54.0646 14.3906 54.7456 14.9125 55.3647 15.5597C56.0869 16.3113 56.706 17.1882 56.9742 18.1694C57.2837 19.2132 57.1806 20.3615 56.3964 21.4889C56.1901 21.7811 55.9631 22.0734 55.6742 22.3448C54.1884 23.8062 51.155 25.0171 47.7708 25.9566C41.2913 27.7729 33.4086 28.7124 33.1197 28.7541C32.6451 28.7959 32.2324 28.4618 32.1912 28.0025C32.1499 27.5432 32.48 27.1257 32.934 27.0839C33.2229 27.0631 40.9405 26.1236 47.2962 24.349C50.4534 23.4722 53.2186 22.3866 54.4773 21.1548C54.7043 20.946 54.8488 20.7373 54.9932 20.5494C55.4472 19.9022 55.5091 19.255 55.344 18.6496C55.1583 17.9815 54.7043 17.3343 54.1472 16.7706C53.6106 16.2278 53.0122 15.7476 52.4963 15.3927C52.1249 15.1422 51.8773 15.0169 51.6916 14.9125C51.382 14.7455 51.2169 14.6411 51.0312 14.3906C50.7836 14.0357 50.7836 13.7643 50.7836 13.0336C50.7836 12.6787 50.7836 13.8061 50.7836 12.7831V11.3634C50.7836 10.9041 51.1757 10.5283 51.6297 10.5283H62.7521C62.9791 10.5283 63.1235 10.3404 63.1235 10.1943C63.1235 10.0273 63.1442 9.79763 63.1442 8.79553C63.1442 7.60553 63.2267 7.64728 62.5045 7.41763C56.2107 5.30904 56.0869 5.28816 52.744 4.16079C52.5582 4.09816 52.3932 3.99377 52.29 3.80588C50.8455 1.19623 51.7741 1.98956 50.3503 5.72658C50.2884 5.85184 50.2058 5.97711 50.082 6.08149L40.0532 13.9731C39.8675 14.1192 39.6199 14.2027 39.3723 14.1401L11.8653 8.545C11.432 8.46149 11.1431 8.02307 11.2256 7.56377C11.3082 7.12535 11.7415 6.81219 12.1955 6.91658L39.3103 12.282Z" fill="#FF1626"/>
<path d="M62.8759 48.5039V43.8066C62.8759 43.0132 62.7521 42.2825 62.4838 41.6353C62.2362 40.9673 61.8442 40.3827 61.3283 39.8399C60.8124 39.2971 60.2346 38.8795 59.5949 38.6081C58.9552 38.3367 58.2536 38.2115 57.4901 38.2115C56.7266 38.2115 56.0043 38.3576 55.3647 38.629C54.725 38.9004 54.1265 39.318 53.59 39.8608C53.0535 40.4036 52.6408 41.009 52.3725 41.6771C52.1043 42.3243 51.9598 43.055 51.9598 43.8274C51.9598 44.5999 52.1043 45.3097 52.3519 45.9569C52.6201 46.6041 53.0329 47.1887 53.5694 47.7106C54.6424 48.7336 55.9424 49.2555 57.4901 49.2555C58.1298 49.2555 58.7076 49.1511 59.2441 48.9841C59.76 48.7962 60.2552 48.5457 60.6886 48.1908C60.7711 48.1073 60.8743 48.0655 60.9981 48.0655C61.2457 48.0655 61.4521 48.2743 61.4521 48.5248C61.4727 49.339 62.8759 49.5687 62.8759 48.5039ZM55.9012 47.5436C55.4059 47.3557 54.9726 47.0425 54.5805 46.6667C54.1678 46.2909 53.8789 45.8525 53.6726 45.3723C53.4662 44.8922 53.363 44.3702 53.363 43.8066C53.363 43.2429 53.4662 42.7209 53.6726 42.2199C53.8789 41.7188 54.1884 41.2804 54.5805 40.8629C55.4059 40.0278 56.3758 39.6102 57.4901 39.6102C58.0472 39.6102 58.5631 39.7146 59.0377 39.9234C59.5124 40.1322 59.9457 40.4453 60.3378 40.8629C60.7092 41.2595 60.9981 41.7188 61.1838 42.199C61.3695 42.7001 61.4727 43.222 61.4727 43.7857C61.4727 44.3494 61.3695 44.8713 61.1838 45.3515C60.9981 45.8316 60.7092 46.2701 60.3378 46.6459C59.9457 47.0425 59.5124 47.3348 59.0377 47.5227C58.5631 47.7106 58.0472 47.815 57.4901 47.815C56.9123 47.8359 56.3964 47.7315 55.9012 47.5436ZM66.4458 54.5792V48.6083C66.4458 48.5039 66.4665 48.4204 66.549 48.3369C66.6935 48.1281 66.9824 48.0864 67.1887 48.2325C67.684 48.6083 68.2205 48.9006 68.7776 49.0885C69.3348 49.2764 69.9126 49.3599 70.5316 49.3599C72.0586 49.3599 73.3587 48.8171 74.4317 47.7523C75.5048 46.6667 76.0206 45.3723 76.0206 43.8066C76.0206 37.6269 67.7046 36.2281 65.4553 41.698C65.1871 42.3452 65.0426 43.055 65.0426 43.8066V54.5792C65.022 55.5187 66.4458 55.4978 66.4458 54.5792ZM66.7554 45.3932C66.549 44.8922 66.4458 44.3911 66.4458 43.8274V43.8066C66.4458 43.2429 66.549 42.7209 66.7347 42.2199C66.9411 41.7397 67.23 41.2804 67.6427 40.8838C68.4268 40.0904 69.3761 39.6938 70.511 39.6938C71.0682 39.6938 71.584 39.7981 72.0793 39.986C72.5745 40.1948 73.0079 40.4871 73.4 40.9046H73.4206C73.8127 41.3222 74.1016 41.7815 74.2873 42.2616C74.4936 42.7418 74.5762 43.2638 74.5762 43.8066C74.5762 44.3702 74.473 44.8922 74.2873 45.3723C74.1016 45.8525 73.792 46.3118 73.4 46.6876C72.5952 47.5018 71.6253 47.8985 70.511 47.8985C69.9538 47.8985 69.438 47.7941 68.9634 47.6062C68.4681 47.3974 68.0348 47.1052 67.6633 46.7085C67.2506 46.3327 66.9617 45.8943 66.7554 45.3932ZM48.0804 41.4474C48.2248 41.8023 48.2867 42.1781 48.2867 42.5748V48.5666C48.2867 49.506 49.7106 49.506 49.7106 48.5666V42.533C49.6899 41.9276 49.5868 41.3639 49.3598 40.8629C49.1534 40.3618 48.8232 39.8816 48.4105 39.4641C47.5645 38.6081 46.5534 38.1906 45.3359 38.1906C44.7374 38.1906 44.1803 38.295 43.685 38.5038C43.1898 38.7125 42.7152 39.0466 42.3025 39.4641C41.8898 39.8816 41.5596 40.3618 41.3532 40.8629C41.1469 41.3639 41.0231 41.9067 41.0231 42.5122V42.533V48.5666C41.0231 49.506 42.4469 49.506 42.4469 48.5666V42.5748C42.4469 42.1781 42.5295 41.8023 42.6533 41.4474C42.7771 41.0925 43.0041 40.7794 43.293 40.4871C43.5819 40.1948 43.8914 39.986 44.2216 39.8399C44.5724 39.6938 44.9438 39.6102 45.3359 39.6102C45.7486 39.6102 46.12 39.6938 46.4502 39.8399C46.801 39.986 47.1311 40.2157 47.3994 40.4871C47.7296 40.7794 47.9359 41.1134 48.0804 41.4474ZM31.4483 45.769C31.6134 45.1845 31.7372 44.6208 31.7784 44.0571L31.8197 42.5957V42.5748C31.8197 42.1781 31.8816 41.8023 32.0261 41.4474C32.1705 41.0925 32.3769 40.7794 32.6658 40.4871C32.934 40.1948 33.2642 39.986 33.5944 39.8399C33.9452 39.6938 34.3166 39.6102 34.7087 39.6102C35.1214 39.6102 35.4928 39.6938 35.8436 39.8399C36.1944 39.986 36.5039 40.2157 36.7928 40.4871C37.0817 40.7794 37.2881 41.0925 37.4325 41.4474C37.577 41.8023 37.6389 42.1781 37.6389 42.5748V48.5666C37.6389 49.506 39.0627 49.506 39.0627 48.5666V42.533C39.0421 41.9276 38.9389 41.3639 38.7326 40.8629C38.5262 40.3618 38.196 39.8816 37.7833 39.4641C36.9373 38.6081 35.9261 38.1906 34.7087 38.1906C33.5324 38.1906 32.5213 38.6081 31.6753 39.4641C31.2626 39.8816 30.953 40.3618 30.726 40.8629C30.5197 41.3639 30.3959 41.9067 30.3959 42.5122C30.3959 42.5331 30.3959 42.533 30.3959 42.533V43.6187V43.6395C30.3752 44.2032 30.3133 44.746 30.1895 45.2471C30.0863 45.7481 29.9213 46.2283 29.6943 46.6667C29.6943 46.6876 29.6943 46.6876 29.6736 46.6876C29.3847 47.2513 28.9308 47.6897 28.3323 48.0029C27.5688 48.5039 28.2704 49.7357 29.0752 49.2346H29.0958C29.426 49.0467 29.7355 48.7962 30.0038 48.5248C30.2721 48.2534 30.5197 47.9194 30.726 47.5645C31.0562 46.9381 31.2832 46.3536 31.4483 45.769ZM25.3402 53.932C26.2069 53.0551 26.6402 52.0113 26.6402 50.7795V38.9631C26.6402 38.0236 25.2164 38.0236 25.2164 38.9631V44.913C25.2164 45.3097 25.1339 45.6855 25.01 46.0404C24.8656 46.3953 24.6592 46.7085 24.3704 47.0008C24.0815 47.293 23.7719 47.5018 23.4211 47.648C23.0703 47.7941 22.6989 47.8567 22.3068 47.8567C21.9147 47.8567 21.5433 47.7941 21.1925 47.648C20.8623 47.5018 20.5528 47.293 20.2639 47.0008C19.975 46.7085 19.7687 46.3953 19.6242 46.0613C19.4798 45.7064 19.3972 45.3306 19.3972 44.9339V38.9839C19.3972 38.0653 17.994 38.0445 17.994 38.9839V44.9548C18.0147 46.1239 18.448 47.1469 19.2734 47.982L19.2941 48.0029C20.1195 48.838 21.1306 49.2555 22.3068 49.2555C22.7195 49.2555 23.1116 49.1929 23.4624 49.1094C23.8132 49.005 24.164 48.8588 24.4735 48.6709C24.5561 48.6083 24.6386 48.5874 24.7418 48.5874C24.9894 48.5874 25.2164 48.7962 25.2164 49.0467V50.7795C25.2164 51.6355 24.9275 52.3453 24.3497 52.9299C24.0608 53.2222 23.7307 53.4518 23.3592 53.598C22.9878 53.7441 22.6163 53.8067 22.183 53.8067C21.5846 53.8067 21.0481 53.6606 20.5941 53.3683C20.1401 53.0969 19.7687 52.6794 19.4798 52.1366C19.4591 52.1157 19.4591 52.0948 19.4591 52.0739C19.2115 51.4476 18.1178 51.6773 18.1385 52.4288C18.1385 52.5332 18.1797 52.6167 18.221 52.7211C18.4067 53.0969 18.6337 53.4309 18.902 53.7441C19.1702 54.0573 19.5004 54.3078 19.8512 54.5583C20.202 54.7671 20.5734 54.955 20.9449 55.0594C21.337 55.1637 21.7497 55.2264 22.183 55.2264C22.7814 55.2264 23.3592 55.122 23.8751 54.8923C24.4116 54.7044 24.8862 54.3704 25.3402 53.932ZM15.7654 48.5874V42.7836C15.7654 42.4913 15.7654 42.7836 15.7654 42.4913C15.7448 41.3222 15.3321 40.3409 14.5067 39.5059C14.0939 39.0674 13.6193 38.7543 13.1241 38.5455C12.6288 38.3367 12.0717 38.2324 11.4733 38.2324C10.8129 38.2324 10.2145 38.3576 9.67798 38.6081C9.14146 38.8587 8.66685 39.2345 8.25414 39.7355C8.23351 39.7564 8.21287 39.7773 8.19223 39.7981C7.98588 39.9652 7.69699 39.9443 7.5319 39.7355C6.70649 38.7543 5.63345 38.2532 4.31279 38.2532C3.71436 38.2532 3.15721 38.3576 2.66196 38.5664C1.07304 39.1927 0 40.8002 0 42.533V48.5666C0 49.4643 1.42384 49.5895 1.42384 48.5666V42.533C1.42384 42.1364 1.48575 41.7606 1.63019 41.4266C1.77464 41.0716 1.98099 40.7585 2.26989 40.4871L2.29052 40.4662C2.57942 40.1948 2.88895 39.986 3.23975 39.8608C3.59055 39.7146 3.94135 39.652 4.31279 39.652C4.68423 39.652 5.03503 39.7146 5.38583 39.8608C5.71599 40.0069 6.02552 40.1948 6.33505 40.4662C6.35569 40.4871 6.35569 40.4871 6.37632 40.508C6.64458 40.8002 6.85094 41.1343 6.97475 41.4683C7.1192 41.8023 7.1811 42.1781 7.1811 42.5539V48.5874C7.1811 49.506 8.60494 49.5895 8.60494 48.5874V42.5539C8.60494 42.1573 8.66685 41.7815 8.8113 41.4474C8.95574 41.0925 9.1621 40.7794 9.45099 40.508L9.47163 40.4871C9.76052 40.2157 10.0701 40.0069 10.4209 39.8816C10.7717 39.7355 11.1225 39.6729 11.4939 39.6729C11.8653 39.6729 12.2161 39.7355 12.5669 39.8816C12.8971 40.0069 13.186 40.2157 13.4749 40.4662C13.4955 40.4871 13.5162 40.4871 13.5368 40.508C13.8051 40.8002 14.032 41.1134 14.1765 41.4474C14.3209 41.7815 14.3828 42.1573 14.3828 42.5539V48.5874C14.3416 49.5895 15.7654 49.4851 15.7654 48.5874Z" fill="#FF1626"/>
</g>
<defs>
<clipPath id="clip0">
<rect width="76" height="55.1993" fill="white" transform="translate(0 0.0688477)"/>
</clipPath>
</defs>
</svg>
