<svg aria-hidden="true" style="position: absolute; width: 0; height: 0; overflow: hidden;" version="1.1" xmlns="http://www.w3.org/2000/svg" xmlns:xlink="http://www.w3.org/1999/xlink">
<defs>
<symbol id="icon-arrow-right" viewBox="0 0 69 32">
<path d="M68.081 17.414c0.781-0.781 0.781-2.047 0-2.828l-12.728-12.728c-0.781-0.781-2.047-0.781-2.829 0s-0.781 2.047 0 2.828l11.314 11.314-11.314 11.314c-0.781 0.781-0.781 2.047 0 2.829s2.047 0.781 2.829 0l12.728-12.728zM0 18h66.667v-4h-66.667v4z"></path>
</symbol>
<symbol id="icon-arrow-slider-left" viewBox="0 0 18 32">
<path  d="M16.078 32l-16.078-16 16.078-16 2.009 2-14.068 14 14.068 14-2.009 2z"></path>
</symbol>
<symbol id="icon-arrow-slider-right" viewBox="0 0 17 32">
<path  d="M1.926 30.815l15.408-15.408-15.408-15.408-1.926 1.926 13.482 13.482-13.482 13.482 1.926 1.926z"></path>
</symbol>
<symbol id="icon-clock" viewBox="0 0 32 32">
<path d="M16 0c-8.822 0-16 7.178-16 16s7.178 16 16 16c8.822 0 16-7.178 16-16s-7.178-16-16-16zM21.269 23.531l-6.869-6.869v-10.262h3.2v8.938l5.931 5.931-2.262 2.262z"></path>
</symbol>
<symbol id="icon-facebook" viewBox="0 0 19 32">
<path  d="M19.2 0.899c0-0.236-0.092-0.462-0.256-0.628s-0.386-0.26-0.617-0.26h-4.364c-2.197-0.111-4.349 0.667-5.984 2.166s-2.622 3.595-2.743 5.832v4.798h-4.364c-0.231 0-0.453 0.094-0.617 0.26s-0.256 0.393-0.256 0.628v4.621c0 0.236 0.092 0.462 0.256 0.628s0.386 0.26 0.617 0.26h4.364v11.907c0 0.236 0.092 0.462 0.256 0.628s0.386 0.26 0.617 0.26h5.236c0.231 0 0.453-0.094 0.617-0.26s0.256-0.393 0.256-0.628v-11.907h4.573c0.194 0.003 0.384-0.060 0.538-0.179s0.267-0.287 0.317-0.478l1.257-4.621c0.035-0.131 0.039-0.269 0.014-0.402s-0.081-0.259-0.162-0.367c-0.081-0.108-0.185-0.196-0.305-0.257s-0.251-0.093-0.385-0.093h-5.847v-4.798c0.043-0.44 0.246-0.848 0.569-1.143s0.742-0.458 1.176-0.456h4.364c0.231 0 0.453-0.094 0.617-0.26s0.256-0.393 0.256-0.628v-4.621z"></path>
</symbol>
<symbol id="icon-instagram" viewBox="0 0 32 32">
<path d="M15.996 10.664c-2.938 0-5.335 2.398-5.335 5.336s2.398 5.336 5.335 5.336c2.938 0 5.336-2.398 5.336-5.336s-2.398-5.336-5.336-5.336zM31.998 16c0-2.209 0.020-4.399-0.104-6.604-0.124-2.562-0.709-4.835-2.582-6.709-1.877-1.877-4.147-2.458-6.708-2.582-2.209-0.124-4.399-0.104-6.604-0.104-2.209 0-4.399-0.020-6.604 0.104-2.562 0.124-4.835 0.708-6.708 2.582-1.877 1.877-2.458 4.147-2.582 6.709-0.124 2.21-0.104 4.399-0.104 6.604s-0.020 4.399 0.104 6.605c0.124 2.562 0.708 4.835 2.582 6.709 1.877 1.877 4.147 2.458 6.708 2.582 2.21 0.124 4.399 0.104 6.604 0.104 2.209 0 4.399 0.020 6.604-0.104 2.562-0.124 4.835-0.708 6.708-2.582 1.877-1.877 2.458-4.147 2.582-6.709 0.128-2.206 0.104-4.395 0.104-6.605zM15.996 24.21c-4.543 0-8.209-3.666-8.209-8.21s3.666-8.21 8.209-8.21c4.543 0 8.209 3.666 8.209 8.21s-3.666 8.21-8.209 8.21zM24.541 9.372c-1.061 0-1.917-0.857-1.917-1.917s0.856-1.917 1.917-1.917c1.061 0 1.917 0.857 1.917 1.917 0 0.252-0.049 0.501-0.145 0.734s-0.237 0.444-0.416 0.622c-0.178 0.178-0.39 0.319-0.622 0.416s-0.482 0.146-0.734 0.145z"></path>
</symbol>
<symbol id="icon-mail" viewBox="0 0 47 32">
<path d="M41.067 0h-35.2c-1.555 0.001-3.047 0.538-4.147 1.493s-1.718 2.248-1.72 3.598v21.818c0.002 1.35 0.62 2.644 1.72 3.598s2.591 1.491 4.147 1.493h35.2c1.555-0.002 3.047-0.538 4.147-1.493s1.718-2.249 1.72-3.598v-21.818c-0.002-1.35-0.62-2.644-1.72-3.598s-2.591-1.491-4.147-1.493zM39.581 8.421l-15.086 10.182c-0.294 0.198-0.656 0.306-1.029 0.306s-0.735-0.108-1.029-0.306l-15.086-10.182c-0.177-0.116-0.326-0.262-0.438-0.428s-0.184-0.351-0.214-0.542c-0.029-0.191-0.014-0.385 0.044-0.571s0.158-0.36 0.295-0.512c0.136-0.152 0.306-0.279 0.5-0.374s0.407-0.155 0.627-0.178c0.221-0.023 0.444-0.007 0.658 0.046s0.413 0.142 0.586 0.263l14.057 9.487 14.057-9.487c0.352-0.23 0.793-0.331 1.23-0.281s0.833 0.247 1.103 0.549c0.27 0.302 0.393 0.684 0.341 1.063s-0.273 0.726-0.617 0.965z"></path>
</symbol>
<symbol id="icon-mark" viewBox="0 0 23 32">
<path d="M11.52 0c-6.369 0-11.52 5.144-11.52 11.505 0 6.854 7.274 16.304 10.269 19.904 0.658 0.789 1.86 0.789 2.518 0 2.979-3.599 10.253-13.050 10.253-19.904 0-6.361-5.151-11.505-11.52-11.505zM11.52 15.614c-1.091 0-2.138-0.433-2.909-1.204s-1.205-1.816-1.205-2.905 0.433-2.135 1.205-2.905c0.772-0.771 1.818-1.203 2.909-1.203s2.138 0.433 2.909 1.203c0.772 0.771 1.205 1.816 1.205 2.905s-0.434 2.135-1.205 2.905c-0.772 0.771-1.818 1.204-2.909 1.204z"></path>
</symbol>
<symbol id="icon-odnoklassniki" viewBox="0 0 19 32">
<path  d="M9.264 0c-4.552 0-8.255 3.705-8.255 8.259s3.703 8.257 8.255 8.257c4.552 0 8.253-3.703 8.253-8.257s-3.701-8.259-8.253-8.259zM9.264 4.839c1.884 0 3.416 1.535 3.416 3.42s-1.532 3.418-3.416 3.418c-1.884 0-3.418-1.534-3.418-3.418s1.534-3.42 3.418-3.42zM2.458 16.797c-0.817-0.013-1.62 0.39-2.086 1.133-0.712 1.132-0.371 2.625 0.758 3.337 1.493 0.937 3.112 1.602 4.792 1.985l-4.613 4.618c-0.944 0.945-0.944 2.477 0.001 3.422 0.473 0.472 1.091 0.708 1.71 0.708s1.238-0.237 1.71-0.709l4.532-4.537 4.536 4.537c0.944 0.945 2.474 0.945 3.419 0s0.945-2.478 0-3.421l-4.615-4.617c1.68-0.383 3.301-1.048 4.792-1.986 1.131-0.712 1.472-2.207 0.761-3.337-0.713-1.132-2.205-1.473-3.336-0.76-3.38 2.127-7.734 2.126-11.113 0-0.389-0.245-0.82-0.366-1.248-0.373v-0z"></path>
</symbol>
<symbol id="icon-phone" viewBox="0 0 32 32">
<path d="M29.474 32c1.393 0 2.526-1.134 2.526-2.526v-5.895c0-1.393-1.134-2.526-2.526-2.526-1.97 0-3.907-0.31-5.76-0.921-0.443-0.14-0.915-0.157-1.367-0.049s-0.866 0.336-1.198 0.66l-2.425 2.425c-4.192-2.276-7.634-5.717-9.912-9.908l2.405-2.42c0.694-0.643 0.943-1.622 0.647-2.563-0.61-1.856-0.919-3.797-0.916-5.75 0-1.393-1.134-2.526-2.526-2.526h-5.895c-1.393 0-2.526 1.134-2.526 2.526 0 16.253 13.221 29.474 29.474 29.474zM2.526 1.684h5.895c0.223 0 0.437 0.089 0.595 0.247s0.247 0.372 0.247 0.595c0 2.151 0.337 4.263 0.999 6.265 0.049 0.145 0.054 0.302 0.016 0.45s-0.118 0.283-0.23 0.387l-3.294 3.311c2.757 5.437 6.83 9.509 12.291 12.29l3.282-3.284c0.112-0.111 0.252-0.189 0.405-0.227s0.313-0.032 0.464 0.015c2.014 0.667 4.126 1.004 6.277 1.004 0.463 0 0.842 0.379 0.842 0.842v5.895c0 0.463-0.379 0.842-0.842 0.842-15.323 0-27.79-12.466-27.79-27.79 0-0.223 0.089-0.437 0.247-0.595s0.372-0.247 0.595-0.247z"></path>
</symbol>
<symbol id="icon-phone-footer" viewBox="0 0 35 32">
<path d="M5.354 2.48c0.377-0.289 0.823-0.506 1.309-0.634s0.999-0.167 1.506-0.113c0.508 0.054 0.998 0.2 1.438 0.428s0.82 0.533 1.115 0.894l3.478 4.267c0.639 0.782 0.827 1.768 0.509 2.67l-1.335 3.803c-0.069 0.197-0.078 0.408-0.024 0.61s0.167 0.391 0.33 0.546l4.833 4.606c0.163 0.155 0.369 0.272 0.599 0.34s0.475 0.083 0.712 0.046l4.564-0.723c0.535-0.085 1.088-0.064 1.617 0.062s1.019 0.351 1.434 0.661l4.584 3.419c1.647 1.229 1.69 3.4 0.089 4.625l-2.231 1.711c-1.594 1.222-3.905 1.674-5.997 0.92-5.351-1.931-10.146-4.862-14.029-8.575-3.897-3.704-6.785-8.098-8.45-12.856-0.65-1.86 0.126-3.776 1.72-5l2.231-1.707z"></path>
</symbol>
<symbol id="icon-play" viewBox="0 0 26 32">
<path d="M26.353 16l-25.412 15.486v-30.973l25.412 15.487z"></path>
</symbol>
<symbol id="icon-qoutes" viewBox="0 0 22 32">
<path  d="M11.151 21.572c-1.794-1.888-2.758-4.006-2.758-7.439 0-6.041 4.28-11.455 10.504-14.133l1.556 2.378c-5.809 3.114-6.945 7.154-7.398 9.702 0.935-0.48 2.16-0.647 3.36-0.537 3.142 0.288 5.618 2.845 5.618 6.022 0 1.602-0.642 3.139-1.786 4.272s-2.694 1.769-4.311 1.769c-1.869 0-3.656-0.846-4.787-2.035h0.002z"></path>
<path  d="M2.757 21.572c-1.794-1.888-2.757-4.006-2.757-7.439 0-6.041 4.28-11.455 10.504-14.133l1.556 2.378c-5.809 3.114-6.945 7.154-7.398 9.702 0.935-0.48 2.16-0.647 3.36-0.537 3.142 0.288 5.618 2.845 5.618 6.022 0 1.602-0.642 3.139-1.786 4.272s-2.694 1.769-4.311 1.769c-1.869 0-3.656-0.846-4.787-2.035h0.002z"></path>
</symbol>
<symbol id="icon-vk" viewBox="0 0 56 32">
<path d="M27.67 31.799h3.418c0 0 1.026-0.169 1.538-0.677s0.513-1.522 0.513-1.522c0 0 0-4.398 2.051-5.074s4.786 4.398 7.52 6.258c2.051 1.522 3.589 1.184 3.589 1.184l7.52-0.169c0 0 3.931-0.169 2.051-3.383-0.171-0.169-1.026-2.199-5.64-6.427-4.786-4.398-4.102-3.552 1.538-11.163 3.419-4.567 4.786-7.273 4.444-8.626-0.342-1.184-2.906-0.846-2.906-0.846h-8.546c0 0-0.684-0.169-1.026 0.169-0.513 0.338-0.684 0.846-0.684 0.846s-1.367 3.552-3.077 6.597c-3.76 6.258-5.299 6.597-5.811 6.258-1.367-0.846-1.026-3.721-1.026-5.582 0-6.089 1.026-8.626-1.88-9.303-0.855-0.169-1.538-0.338-3.931-0.338-3.077 0-5.64 0-7.008 0.677-1.026 0.507-1.709 1.522-1.197 1.522s1.88 0.338 2.564 1.184c0.684 1.522 0.684 4.059 0.684 4.059s0.513 7.273-1.197 8.119c-1.196 0.677-2.735-0.677-6.153-6.427-1.709-2.875-3.077-6.258-3.077-6.258s-0.171-0.677-0.684-1.015c-0.513-0.338-1.367-0.507-1.367-0.507h-8.033c0 0-1.196 0-1.709 0.507-0.342 0.507 0 1.353 0 1.353s6.324 14.546 13.503 21.989c6.666 7.104 14.015 6.597 14.015 6.597z"></path>
</symbol>
<symbol id="icon-youtube" viewBox="0 0 46 32">
<path  d="M44.784 5.031c-0.26-0.965-0.769-1.845-1.475-2.553s-1.585-1.218-2.55-1.48c-3.577-0.982-17.887-0.998-17.887-0.998s-14.308-0.016-17.887 0.923c-0.964 0.274-1.841 0.792-2.548 1.503s-1.218 1.592-1.486 2.558c-0.943 3.576-0.952 10.994-0.952 10.994s-0.009 7.454 0.927 10.994c0.525 1.957 2.067 3.503 4.027 4.031 3.613 0.982 17.884 0.998 17.884 0.998s14.31 0.016 17.887-0.92c0.965-0.262 1.845-0.771 2.553-1.477s1.219-1.585 1.483-2.549c0.946-3.574 0.953-10.989 0.953-10.989s0.046-7.457-0.93-11.033zM18.296 22.849l0.011-13.702 11.893 6.863-11.905 6.84z"></path>
</symbol>
<symbol id="icon-arrow-video-right" viewBox="0 0 92 32">
<path d="M89.682 17.414c0.781-0.781 0.781-2.047 0-2.828l-12.728-12.728c-0.781-0.781-2.047-0.781-2.828 0s-0.781 2.047 0 2.828l11.314 11.314-11.314 11.314c-0.781 0.781-0.781 2.047 0 2.828s2.047 0.781 2.828 0l12.728-12.728zM0 18h88.268v-4h-88.268v4z"></path>
</symbol>
<symbol id="icon-flag" viewBox="0 0 23 32">
<path d="M10.749 23.694l-10.667 6.203v-24.811c0-1.097 0.45-2.149 1.25-2.924s1.885-1.211 3.017-1.211h12.8c1.132 0 2.217 0.436 3.017 1.211s1.25 1.827 1.25 2.924v24.811l-10.667-6.203zM2.216 26.246l8.533-4.962 8.533 4.962v-21.16c0-0.548-0.225-1.074-0.625-1.462s-0.943-0.606-1.508-0.606h-12.8c-0.566 0-1.108 0.218-1.508 0.606s-0.625 0.914-0.625 1.462v21.16z"></path>
</symbol>
<symbol id="icon-grid" viewBox="0 0 32 32">
<path d="M18.5 2h12c0.828 0 1.5 0.672 1.5 1.5v10c0 0.828-0.672 1.5-1.5 1.5h-12c-0.828 0-1.5-0.672-1.5-1.5v-10c0-0.828 0.672-1.5 1.5-1.5zM13.5 2h-12c-0.828 0-1.5 0.672-1.5 1.5v10c0 0.828 0.672 1.5 1.5 1.5h12c0.828 0 1.5-0.672 1.5-1.5v-10c0-0.828-0.672-1.5-1.5-1.5zM0 18.5v10c0 0.828 0.672 1.5 1.5 1.5h12c0.828 0 1.5-0.672 1.5-1.5v-10c0-0.828-0.672-1.5-1.5-1.5h-12c-0.828 0-1.5 0.672-1.5 1.5zM18.5 30h12c0.828 0 1.5-0.672 1.5-1.5v-10c0-0.828-0.672-1.5-1.5-1.5h-12c-0.828 0-1.5 0.672-1.5 1.5v10c0 0.828 0.672 1.5 1.5 1.5z"></path>
</symbol>
<symbol id="icon-branch" viewBox="0 0 32 32">
<path d="M13.63 25.742l-2.709-2.626 1.429-1.447 4.544 4.404v1.447l-4.544 4.404-1.515-1.468 2.709-2.626h-3.947c-0.701 0.003-1.396-0.129-2.044-0.388s-1.237-0.639-1.733-1.12c-0.496-0.48-0.889-1.052-1.156-1.68s-0.403-1.302-0.4-1.981v-11.475c-1.022-0.211-1.962-0.698-2.709-1.406-0.743-0.727-1.248-1.65-1.453-2.654s-0.1-2.044 0.301-2.99c0.405-0.943 1.089-1.749 1.966-2.316s1.908-0.869 2.962-0.868c0.732-0.015 1.458 0.119 2.133 0.393 0.646 0.258 1.234 0.637 1.728 1.116s0.886 1.048 1.152 1.675c0.284 0.655 0.42 1.361 0.405 2.068 0 1.192-0.424 2.347-1.202 3.27s-1.86 1.557-3.065 1.796v11.372c0 0.822 0.337 1.611 0.937 2.193s1.414 0.908 2.263 0.908h3.947zM3.646 8.685c0.615 0.397 1.354 0.576 2.090 0.505s1.424-0.386 1.947-0.893c0.523-0.507 0.849-1.174 0.922-1.887s-0.111-1.429-0.521-2.026c-0.358-0.514-0.862-0.916-1.451-1.158-0.581-0.229-1.22-0.287-1.835-0.165-0.623 0.117-1.196 0.412-1.644 0.846s-0.753 0.99-0.873 1.594c-0.126 0.596-0.066 1.215 0.171 1.778 0.25 0.573 0.663 1.061 1.195 1.406zM25.683 21.71c1.024 0.203 1.967 0.693 2.709 1.406 0.87 0.848 1.411 1.961 1.531 3.152s-0.187 2.384-0.87 3.38c-0.439 0.634-1.017 1.166-1.693 1.558s-1.433 0.633-2.217 0.708-1.575-0.021-2.317-0.278c-0.742-0.258-1.415-0.671-1.972-1.21s-0.984-1.192-1.25-1.911c-0.266-0.719-0.364-1.485-0.288-2.245s0.325-1.494 0.729-2.149 0.952-1.216 1.606-1.642c0.574-0.376 1.218-0.637 1.899-0.765v-11.477c0-0.823-0.337-1.611-0.937-2.193s-1.414-0.908-2.263-0.908h-3.947l2.709 2.626-1.515 1.468-4.544-4.404v-1.447l4.544-4.404 1.515 1.468-2.709 2.626h3.947c0.701-0.003 1.396 0.129 2.044 0.388s1.237 0.639 1.733 1.12c0.496 0.481 0.889 1.051 1.156 1.68s0.403 1.302 0.4 1.981v11.475zM24.934 29.863c0.549-0.053 1.074-0.243 1.525-0.551s0.812-0.724 1.048-1.207c0.236-0.483 0.339-1.017 0.3-1.55s-0.221-1.047-0.526-1.493c-0.358-0.514-0.862-0.916-1.451-1.158-0.581-0.229-1.218-0.287-1.833-0.165-0.623 0.117-1.196 0.412-1.644 0.846s-0.753 0.99-0.873 1.593c-0.125 0.596-0.066 1.215 0.171 1.778 0.262 0.618 0.724 1.138 1.315 1.481s1.282 0.493 1.968 0.425z"></path>
</symbol>
<symbol id="icon-row" viewBox="0 0 32 32">
<path d="M32 13.667v-12.333c0-0.736-0.597-1.333-1.333-1.333h-29.333c-0.736 0-1.333 0.597-1.333 1.333v12.333c0 0.736 0.597 1.333 1.333 1.333h29.333c0.736 0 1.333-0.597 1.333-1.333z"></path>
<path d="M0 18.333v12.333c0 0.736 0.597 1.333 1.333 1.333h29.333c0.736 0 1.333-0.597 1.333-1.333v-12.333c0-0.736-0.597-1.333-1.333-1.333h-29.333c-0.736 0-1.333 0.597-1.333 1.333z"></path>
</symbol>
<symbol id="icon-graph-line" viewBox="0 0 577 32">
<path d="M575.406 16.76c0.795-0.8 0.792-2.093-0.008-2.889l-13.032-12.965c-0.799-0.796-2.093-0.792-2.888 0.007s-0.793 2.093 0.007 2.889l11.584 11.525-11.525 11.584c-0.795 0.8-0.792 2.093 0.008 2.889s2.093 0.792 2.889-0.007l12.965-13.032zM0.686 18.83l573.277-1.468-0.011-4.085-573.276 1.468 0.010 4.085z"></path>
</symbol>
<symbol id="icon-close" viewBox="0 0 22 32">
<path d="M15.17 16l6.254-6.254c0.767-0.768 0.767-2.012 0-2.78l-1.39-1.39c-0.767-0.768-2.012-0.768-2.78 0l-6.254 6.254-6.254-6.254c-0.768-0.768-2.012-0.768-2.78 0l-1.39 1.39c-0.767 0.768-0.767 2.012 0 2.78l6.254 6.254-6.254 6.254c-0.767 0.767-0.767 2.012 0 2.78l1.39 1.39c0.767 0.767 2.013 0.767 2.78 0l6.254-6.254 6.254 6.254c0.767 0.767 2.012 0.767 2.78 0l1.39-1.39c0.767-0.767 0.767-2.012 0-2.78l-6.254-6.254z"></path>
</symbol>
<symbol id="icon-check" viewBox="0 0 32 32">
<path d="M10.869 27.463l-10.4-10.4c-0.625-0.625-0.625-1.638 0-2.263l2.263-2.263c0.625-0.625 1.638-0.625 2.263 0l7.006 7.006 15.006-15.006c0.625-0.625 1.638-0.625 2.263 0l2.263 2.263c0.625 0.625 0.625 1.638 0 2.263l-18.4 18.4c-0.625 0.625-1.638 0.625-2.263-0z"></path>
</symbol>
</defs>
</svg>
