<svg width="15" height="15" viewBox="0 0 15 15" fill="none" xmlns="http://www.w3.org/2000/svg">
<path fill-rule="evenodd" clip-rule="evenodd" d="M6.38892 12.0667L5.11892 10.8359L5.78892 10.1574L7.91892 12.2218V12.9003L5.78892 14.9646L5.07892 14.2765L6.34892 13.0456H4.49892C4.17024 13.0469 3.84456 12.9851 3.54065 12.8638C3.23674 12.7425 2.96061 12.5641 2.7282 12.3388C2.49579 12.1136 2.31169 11.8459 2.18652 11.5514C2.06136 11.2568 1.99759 10.9412 1.99892 10.6226V5.24362C1.5198 5.14475 1.07943 4.91623 0.728917 4.58456C0.380785 4.24366 0.143929 3.81094 0.0478985 3.34041C-0.0481322 2.86988 0.000913635 2.38236 0.188917 1.93866C0.378663 1.49647 0.699359 1.11869 1.1105 0.853044C1.52164 0.587394 2.00479 0.445786 2.49892 0.446105C2.84188 0.438959 3.18256 0.501696 3.49892 0.630252C3.80197 0.751083 4.07732 0.928927 4.30903 1.15351C4.54075 1.37808 4.72425 1.64494 4.84892 1.93866C4.98192 2.2459 5.04592 2.57639 5.03892 2.90786C5.03904 3.46643 4.84003 4.00789 4.47557 4.44059C4.11112 4.8733 3.6036 5.17067 3.03892 5.28238V10.613C3.03892 10.9985 3.19695 11.3683 3.47826 11.6409C3.75956 11.9136 4.14109 12.0667 4.53892 12.0667H6.38892ZM1.70892 4.07089C1.99744 4.25719 2.34363 4.34088 2.68862 4.30772C3.03362 4.27456 3.35611 4.1266 3.60125 3.88901C3.8464 3.65141 3.99906 3.33886 4.03327 3.00449C4.06748 2.67013 3.98114 2.3346 3.78892 2.05497C3.62118 1.81412 3.38497 1.62559 3.10892 1.51222C2.83644 1.40465 2.5372 1.37767 2.24892 1.43468C1.95693 1.48941 1.68852 1.62757 1.47823 1.83138C1.26793 2.0352 1.12538 2.29534 1.06892 2.57833C1.01009 2.85773 1.03793 3.14775 1.14892 3.41184C1.26592 3.68031 1.45992 3.90904 1.70892 4.07089ZM12.0389 10.1768C12.5189 10.2718 12.9609 10.5015 13.3089 10.8359C13.7166 11.2335 13.9702 11.7553 14.0267 12.3132C14.0832 12.8711 13.9391 13.4307 13.6189 13.8976C13.4132 14.1947 13.1422 14.4441 12.8253 14.6277C12.5083 14.8113 12.1534 14.9246 11.7859 14.9594C11.4184 14.9942 11.0476 14.9497 10.6999 14.8291C10.3523 14.7084 10.0366 14.5147 9.77542 14.2617C9.51426 14.0087 9.31416 13.7028 9.1895 13.366C9.06483 13.0291 9.01869 12.6697 9.0544 12.3135C9.09011 11.9574 9.20678 11.6133 9.39603 11.306C9.58527 10.9987 9.84239 10.7359 10.1489 10.5364C10.4179 10.36 10.7199 10.2379 11.0389 10.1778V4.79779C11.0389 4.41222 10.8809 4.04244 10.5996 3.7698C10.3183 3.49716 9.93674 3.344 9.53892 3.344H7.68892L8.95892 4.57487L8.24892 5.263L6.11892 3.19862V2.52018L8.24892 0.455797L8.95892 1.14393L7.68892 2.3748H9.53892C9.86759 2.37352 10.1933 2.43532 10.4972 2.55663C10.8011 2.67794 11.0772 2.85637 11.3096 3.08162C11.542 3.30687 11.7261 3.57449 11.8513 3.86904C11.9765 4.16359 12.0402 4.47924 12.0389 4.79779V10.1768ZM11.6879 13.9983C11.9451 13.9733 12.1913 13.8843 12.4026 13.7399C12.6139 13.5955 12.7831 13.4007 12.8937 13.1742C13.0044 12.9478 13.0528 12.6975 13.0343 12.4476C13.0157 12.1977 12.9309 11.9566 12.7879 11.7479C12.6202 11.507 12.384 11.3185 12.1079 11.2051C11.8357 11.0978 11.5369 11.0708 11.2489 11.1276C10.9569 11.1823 10.6885 11.3205 10.4782 11.5243C10.2679 11.7281 10.1254 11.9883 10.0689 12.2712C10.0101 12.5506 10.0379 12.8407 10.1489 13.1048C10.2718 13.3945 10.4881 13.6381 10.7654 13.7991C11.0427 13.9601 11.3663 14.03 11.6879 13.9983Z" fill="#0D0C36"/>
</svg>
