<svg width="15" height="25" viewBox="0 0 15 25" fill="none" xmlns="http://www.w3.org/2000/svg">
<path d="M15 0.702426C15 0.518308 14.9282 0.341732 14.8003 0.211541C14.6724 0.0813501 14.499 0.00820955 14.3182 0.00820955H10.9091C9.19244 -0.0788579 7.51172 0.529415 6.23417 1.70013C4.95661 2.87084 4.18607 4.50881 4.09091 6.25616V10.0049H0.681818C0.500989 10.0049 0.327566 10.0781 0.1997 10.2083C0.0718343 10.3384 0 10.515 0 10.6991V14.3091C0 14.4932 0.0718343 14.6698 0.1997 14.8C0.327566 14.9301 0.500989 15.0033 0.681818 15.0033H4.09091V24.3058C4.09091 24.4899 4.16274 24.6665 4.29061 24.7967C4.41847 24.9269 4.5919 25 4.77273 25H8.86364C9.04447 25 9.21789 24.9269 9.34576 24.7967C9.47362 24.6665 9.54545 24.4899 9.54545 24.3058V15.0033H13.1182C13.2698 15.0055 13.4178 14.9562 13.5388 14.8632C13.6599 14.7701 13.747 14.6387 13.7864 14.4896L14.7682 10.8796C14.7953 10.7771 14.799 10.6695 14.7788 10.5653C14.7587 10.461 14.7154 10.3629 14.6522 10.2784C14.5889 10.1939 14.5075 10.1253 14.4141 10.0779C14.3208 10.0305 14.218 10.0055 14.1136 10.0049H9.54545V6.25616C9.57937 5.91249 9.73788 5.59403 9.99003 5.36297C10.2422 5.13191 10.5699 5.00484 10.9091 5.00657H14.3182C14.499 5.00657 14.6724 4.93343 14.8003 4.80324C14.9282 4.67305 15 4.49647 15 4.31235V0.702426Z" fill="#224477"/>
</svg>
