<svg width="11" height="15" viewBox="0 0 11 15" fill="none" xmlns="http://www.w3.org/2000/svg">
<path fill-rule="evenodd" clip-rule="evenodd" d="M5.0387 11.1067L10.0387 14.0143V2.38395C10.0387 1.86985 9.82798 1.37682 9.45291 1.0133C9.07784 0.649779 8.56913 0.445557 8.0387 0.445557H2.0387C1.50826 0.445557 0.999555 0.649779 0.624483 1.0133C0.24941 1.37682 0.0386963 1.86985 0.0386963 2.38395V14.0143L5.0387 11.1067ZM1.0387 12.3027L5.0387 9.97661L9.0387 12.3027V2.38395C9.0387 2.1269 8.93334 1.88038 8.7458 1.69862C8.55827 1.51686 8.30391 1.41475 8.0387 1.41475H2.0387C1.77348 1.41475 1.51913 1.51686 1.33159 1.69862C1.14405 1.88038 1.0387 2.1269 1.0387 2.38395V12.3027Z" fill="#0D0C36"/>
</svg>
