<svg width="22" height="15" viewBox="0 0 22 15" fill="none" xmlns="http://www.w3.org/2000/svg">
<path d="M19.25 0H2.75C2.02089 0.000676801 1.32187 0.252314 0.806318 0.699697C0.290762 1.14708 0.000779932 1.75367 0 2.38636V12.6136C0.000779932 13.2463 0.290762 13.8529 0.806318 14.3003C1.32187 14.7477 2.02089 14.9993 2.75 15H19.25C19.9791 14.9993 20.6781 14.7477 21.1937 14.3003C21.7092 13.8529 21.9992 13.2463 22 12.6136V2.38636C21.9992 1.75367 21.7092 1.14708 21.1937 0.699697C20.6781 0.252314 19.9791 0.000676801 19.25 0ZM18.5537 3.9473L11.4822 8.72003C11.3443 8.81305 11.1747 8.86355 11 8.86355C10.8253 8.86355 10.6557 8.81305 10.5178 8.72003L3.44634 3.9473C3.36326 3.89286 3.29347 3.82462 3.24104 3.74657C3.18861 3.66852 3.15457 3.5822 3.14092 3.49264C3.12726 3.40308 3.13425 3.31205 3.16149 3.22485C3.18872 3.13765 3.23565 3.05602 3.29956 2.98469C3.36346 2.91337 3.44307 2.85378 3.53374 2.80938C3.62441 2.76499 3.72435 2.73667 3.82775 2.72608C3.93114 2.71549 4.03593 2.72284 4.13602 2.7477C4.23612 2.77256 4.32952 2.81443 4.4108 2.87088L11 7.31804L17.5892 2.87088C17.754 2.76291 17.9611 2.71555 18.1658 2.73905C18.3705 2.76256 18.5562 2.85503 18.683 2.99647C18.8097 3.13792 18.8672 3.31697 18.843 3.4949C18.8188 3.67283 18.7149 3.83535 18.5537 3.9473Z" fill="white"/>
</svg>
