<svg width="18" height="25" viewBox="0 0 18 25" fill="none" xmlns="http://www.w3.org/2000/svg">
<path d="M9 0C4.02429 0 0 4.019 0 8.98819C0 14.3426 5.68286 21.7257 8.02286 24.5378C8.53714 25.1541 9.47571 25.1541 9.99 24.5378C12.3171 21.7257 18 14.3426 18 8.98819C18 4.019 13.9757 0 9 0ZM9 12.1983C8.14752 12.1983 7.32995 11.8601 6.72716 11.258C6.12436 10.656 5.78571 9.83955 5.78571 8.98819C5.78571 8.13682 6.12436 7.32033 6.72716 6.71833C7.32995 6.11632 8.14752 5.77812 9 5.77812C9.85248 5.77812 10.67 6.11632 11.2728 6.71833C11.8756 7.32033 12.2143 8.13682 12.2143 8.98819C12.2143 9.83955 11.8756 10.656 11.2728 11.258C10.67 11.8601 9.85248 12.1983 9 12.1983Z" fill="white"/>
</svg>
