<svg width="22" height="38" viewBox="0 0 22 38" fill="none" xmlns="http://www.w3.org/2000/svg">
<path d="M11.0008 0C5.59519 0 1.19777 4.3993 1.19777 9.80757C1.19777 15.2154 5.59519 19.6127 11.0008 19.6127C16.4062 19.6127 20.8015 15.2154 20.8015 9.80757C20.8015 4.3993 16.4063 0 11.0008 0ZM11.0008 5.74632C13.2381 5.74632 15.0573 7.56907 15.0573 9.80757C15.0573 12.0451 13.2381 13.8665 11.0008 13.8665C8.76312 13.8665 6.94193 12.0452 6.94193 9.80757C6.94193 7.56907 8.76312 5.74632 11.0008 5.74632ZM2.91866 19.9464C1.94878 19.9313 0.995044 20.4097 0.441782 21.2919C-0.40372 22.6358 0.00131428 24.4092 1.3414 25.2545C3.11398 26.3673 5.03745 27.1567 7.03216 27.6117L1.55385 33.0956C0.432363 34.2183 0.433313 36.0365 1.55503 37.1592C2.11725 37.7196 2.85053 38 3.58567 38C4.32005 38 5.05579 37.7191 5.61631 37.1581L10.9985 31.7704L16.3854 37.1581C17.506 38.2804 19.323 38.2804 20.4455 37.1581C21.5675 36.0361 21.5675 34.2159 20.4455 33.0956L14.9648 27.613C16.9601 27.1579 18.8842 26.368 20.6556 25.2546C21.9983 24.4093 22.4039 22.6339 21.5587 21.2919C20.7125 19.9476 18.9408 19.5427 17.5971 20.3894C13.5839 22.9152 8.41292 22.9135 4.40098 20.3894C3.93917 20.0984 3.42669 19.9544 2.91866 19.9465V19.9464Z" fill="#224477"/>
</svg>
