<svg width="13" height="13" viewBox="0 0 13 13" fill="none" xmlns="http://www.w3.org/2000/svg">
<path d="M11.9737 13C12.5395 13 13 12.5395 13 11.9737V9.5789C13 9.0131 12.5395 8.5526 11.9737 8.5526C11.1732 8.5526 10.3863 8.4267 9.6337 8.1784C9.4538 8.1216 9.2618 8.1147 9.0783 8.1584C8.8948 8.2021 8.7266 8.2949 8.5916 8.4267L7.6064 9.412C5.9034 8.4875 4.5049 7.0894 3.5798 5.3868L4.5568 4.4036C4.8387 4.1422 4.94 3.7447 4.8196 3.3622C4.5717 2.6084 4.4461 1.8198 4.4474 1.0263C4.4474 0.4605 3.9869 0 3.4211 0H1.0263C0.4605 0 0 0.4605 0 1.0263C0 7.6289 5.3711 13 11.9737 13ZM1.0263 0.6842H3.4211C3.5118 0.6842 3.5988 0.720301 3.663 0.784401C3.7271 0.848601 3.7632 0.9356 3.7632 1.0263C3.7632 1.9001 3.9 2.7581 4.1689 3.5716C4.1887 3.6306 4.191 3.6941 4.1755 3.7544C4.1601 3.8147 4.1277 3.8693 4.082 3.9116L2.7437 5.2568C3.8637 7.4654 5.5182 9.1198 7.7371 10.2495L9.0706 8.9153C9.1161 8.8702 9.173 8.8384 9.2352 8.8232C9.2973 8.8081 9.3625 8.8101 9.4236 8.8291C10.2419 9.1 11.0999 9.2368 11.9737 9.2368C12.1618 9.2368 12.3158 9.3908 12.3158 9.5789V11.9737C12.3158 12.1618 12.1618 12.3158 11.9737 12.3158C5.7487 12.3158 0.6842 7.2513 0.6842 1.0263C0.6842 0.9356 0.720301 0.848601 0.784401 0.784401C0.848601 0.720301 0.9356 0.6842 1.0263 0.6842Z" fill="white"/>
</svg>
