<svg width="24" height="22" viewBox="0 0 24 22" fill="none" xmlns="http://www.w3.org/2000/svg">
<path fill-rule="evenodd" clip-rule="evenodd" d="M3.68086 1.705C3.94017 1.50609 4.24682 1.3574 4.58046 1.26881C4.91409 1.18022 5.2671 1.15374 5.61605 1.19113C5.965 1.22853 6.30192 1.32894 6.60446 1.4857C6.907 1.64247 7.16824 1.85201 7.37086 2.10041L9.76173 5.0343C10.2013 5.57177 10.3302 6.24956 10.1119 6.86978L9.19374 9.48451C9.14601 9.62018 9.14031 9.76471 9.17719 9.90404C9.21408 10.0434 9.29229 10.1727 9.40422 10.2796L12.7271 13.4465C12.8391 13.5532 12.981 13.6337 13.139 13.6802C13.297 13.7266 13.4656 13.7375 13.6285 13.7116L16.7661 13.2144C17.1341 13.1562 17.5142 13.1706 17.8775 13.2567C18.2408 13.3428 18.578 13.4982 18.8634 13.7112L22.0148 16.0617C23.1474 16.9063 23.1764 18.3989 22.0759 19.2416L20.5422 20.4179C19.4465 21.2583 17.8577 21.5688 16.4195 21.0504C12.7408 19.723 9.44423 17.7081 6.77434 15.155C4.09529 12.6086 2.10979 9.58765 0.965114 6.31625C0.518346 5.03745 1.05147 3.72044 2.14728 2.87874L3.68093 1.7037L3.68086 1.705Z" fill="white"/>
</svg>
