<svg width="37" height="21" viewBox="0 0 37 21" fill="none" xmlns="http://www.w3.org/2000/svg">
<path fill-rule="evenodd" clip-rule="evenodd" d="M18.1584 20.868H20.4017C20.4017 20.868 21.0747 20.757 21.4112 20.424C21.7477 20.091 21.7477 19.425 21.7477 19.425C21.7477 19.425 21.7477 16.539 23.0937 16.095C24.4397 15.651 26.2344 18.981 28.029 20.202C29.375 21.201 30.3845 20.979 30.3845 20.979L35.3198 20.868C35.3198 20.868 37.8996 20.757 36.6658 18.648C36.5537 18.537 35.9928 17.205 32.9643 14.43C29.8237 11.544 30.2724 12.099 33.9738 7.10399C36.2172 4.107 37.1145 2.331 36.8902 1.443C36.6658 0.665999 34.9833 0.887999 34.9833 0.887999H29.375C29.375 0.887999 28.9264 0.776999 28.702 0.998999C28.3655 1.221 28.2534 1.554 28.2534 1.554C28.2534 1.554 27.356 3.885 26.2344 5.88299C23.7667 9.98999 22.7572 10.212 22.4207 9.98999C21.5234 9.43499 21.7477 7.54799 21.7477 6.32699C21.7477 2.331 22.4207 0.665998 20.5139 0.221999C19.9531 0.110999 19.5044 0 17.9341 0C15.9151 0 14.2326 -4.30047e-07 13.3353 0.443999C12.6623 0.776999 12.2136 1.443 12.5501 1.443C12.8866 1.443 13.784 1.665 14.2326 2.22C14.6813 3.219 14.6813 4.884 14.6813 4.884C14.6813 4.884 15.0178 9.65699 13.8961 10.212C13.111 10.656 12.1015 9.76799 9.85815 5.994C8.73649 4.107 7.83916 1.887 7.83916 1.887C7.83916 1.887 7.72699 1.443 7.39049 1.221C7.054 0.999 6.49317 0.887999 6.49317 0.887999H1.22136C1.22136 0.887999 0.436201 0.888 0.0997031 1.221C-0.124629 1.554 0.0997031 2.109 0.0997031 2.109C0.0997031 2.109 4.24985 11.655 8.96082 16.539C13.3353 21.201 18.1584 20.868 18.1584 20.868Z" fill="white"/>
</svg>
