<svg width="30" height="21" viewBox="0 0 30 21" fill="none" xmlns="http://www.w3.org/2000/svg">
<path d="M29.3897 3.30168C29.219 2.66832 28.8853 2.09072 28.4219 1.62637C27.9586 1.16201 27.3816 0.827092 26.7486 0.654949C24.4012 0.0105021 15.0104 1.1385e-05 15.0104 1.1385e-05C15.0104 1.1385e-05 5.62103 -0.0104799 3.27219 0.605492C2.63952 0.785557 2.06377 1.12521 1.60022 1.59185C1.13666 2.05848 0.800864 2.63643 0.62506 3.27021C0.00599823 5.61719 2.19616e-06 10.485 2.19616e-06 10.485C2.19616e-06 10.485 -0.00599354 15.3768 0.608572 17.6998C0.953328 18.9842 1.96511 19.9988 3.2512 20.3451C5.62253 20.9895 14.9879 21 14.9879 21C14.9879 21 24.3788 21.0105 26.7261 20.396C27.3594 20.2242 27.9369 19.89 28.4014 19.4266C28.8659 18.9632 29.2014 18.3866 29.3747 17.7538C29.9953 15.4083 29.9998 10.542 29.9998 10.542C29.9998 10.542 30.0298 5.64866 29.3897 3.30168ZM12.0065 14.9946L12.014 6.00236L19.819 10.506L12.0065 14.9946Z" fill="#224477"/>
</svg>
